<?xml version="1.0" encoding="utf-8" standalone="no"?>
<!DOCTYPE svg PUBLIC "-//W3C//DTD SVG 1.1//EN"
  "http://www.w3.org/Graphics/SVG/1.1/DTD/svg11.dtd">
<svg xmlns:xlink="http://www.w3.org/1999/xlink" width="1018.8pt" height="757.44pt" viewBox="0 0 1018.8 757.44" xmlns="http://www.w3.org/2000/svg" version="1.1">
 <metadata>
  <rdf:RDF xmlns:dc="http://purl.org/dc/elements/1.1/" xmlns:cc="http://creativecommons.org/ns#" xmlns:rdf="http://www.w3.org/1999/02/22-rdf-syntax-ns#">
   <cc:Work>
    <dc:type rdf:resource="http://purl.org/dc/dcmitype/StillImage"/>
    <dc:date>2026-07-08T16:14:06.129548</dc:date>
    <dc:format>image/svg+xml</dc:format>
    <dc:creator>
     <cc:Agent>
      <dc:title>Matplotlib v3.10.8, https://matplotlib.org/</dc:title>
     </cc:Agent>
    </dc:creator>
   </cc:Work>
  </rdf:RDF>
 </metadata>
 <defs>
  <style type="text/css">*{stroke-linejoin: round; stroke-linecap: butt}</style>
 </defs>
 <g id="figure_1">
  <g id="patch_1">
   <path d="M 0 757.44 
L 1018.8 757.44 
L 1018.8 0 
L 0 0 
z
" style="fill: #ffffff"/>
  </g>
  <g id="axes_1">
   <g id="patch_2">
    <path d="M 118.8 307.2744 
L 286.2 307.2744 
Q 291.78 307.2744 291.78 301.7304 
L 291.78 200.8296 
Q 291.78 195.2856 286.2 195.2856 
L 118.8 195.2856 
Q 113.22 195.2856 113.22 200.8296 
L 113.22 301.7304 
Q 113.22 307.2744 118.8 307.2744 
z
" clip-path="url(#pfebeab99ec)" style="fill: #d5f0dc; opacity: 0.4; stroke: #2e8b57; stroke-width: 2; stroke-linejoin: miter"/>
   </g>
   <g id="patch_3">
    <path d="M 118.8 619.956 
L 286.2 619.956 
Q 291.78 619.956 291.78 614.412 
L 291.78 387.108 
Q 291.78 381.564 286.2 381.564 
L 118.8 381.564 
Q 113.22 381.564 113.22 387.108 
L 113.22 614.412 
Q 113.22 619.956 118.8 619.956 
z
" clip-path="url(#pfebeab99ec)" style="fill: #d6e4f0; opacity: 0.4; stroke: #2e6fa7; stroke-width: 2; stroke-linejoin: miter"/>
   </g>
   <g id="patch_4">
    <path d="M 481.5 432.5688 
L 648.9 432.5688 
Q 654.48 432.5688 654.48 427.0248 
L 654.48 241.8552 
Q 654.48 236.3112 648.9 236.3112 
L 481.5 236.3112 
Q 475.92 236.3112 475.92 241.8552 
L 475.92 427.0248 
Q 475.92 432.5688 481.5 432.5688 
z
" clip-path="url(#pfebeab99ec)" style="fill: #fce8c8; opacity: 0.4; stroke: #c77f1a; stroke-width: 2; stroke-linejoin: miter"/>
   </g>
   <g id="patch_5">
    <path d="M 481.5 664.8624 
L 648.9 664.8624 
Q 654.48 664.8624 654.48 659.3184 
L 654.48 453.0816 
Q 654.48 447.5376 648.9 447.5376 
L 481.5 447.5376 
Q 475.92 447.5376 475.92 453.0816 
L 475.92 659.3184 
Q 475.92 664.8624 481.5 664.8624 
z
" clip-path="url(#pfebeab99ec)" style="fill: #e6d6f0; opacity: 0.4; stroke: #7b3fa0; stroke-width: 2; stroke-linejoin: miter"/>
   </g>
   <g id="patch_6">
    <path d="M 788.4 612.1944 
L 955.8 612.1944 
Q 961.38 612.1944 961.38 606.6504 
L 961.38 505.7496 
Q 961.38 500.2056 955.8 500.2056 
L 788.4 500.2056 
Q 782.82 500.2056 782.82 505.7496 
L 782.82 606.6504 
Q 782.82 612.1944 788.4 612.1944 
z
" clip-path="url(#pfebeab99ec)" style="fill: #f5d6d6; opacity: 0.4; stroke: #b33a3a; stroke-width: 2; stroke-linejoin: miter"/>
   </g>
   <g id="patch_7">
    <path d="M 788.4 307.2744 
L 955.8 307.2744 
Q 961.38 307.2744 961.38 301.7304 
L 961.38 200.8296 
Q 961.38 195.2856 955.8 195.2856 
L 788.4 195.2856 
Q 782.82 195.2856 782.82 200.8296 
L 782.82 301.7304 
Q 782.82 307.2744 788.4 307.2744 
z
" clip-path="url(#pfebeab99ec)" style="fill: #d6e8e8; opacity: 0.4; stroke: #2a7a7a; stroke-width: 2; stroke-linejoin: miter"/>
   </g>
   <g id="line2d_1">
    <path d="M 565.2 556.2 
L 565.2 667.08 
L 872.1 667.08 
L 872.1 628.272 
" clip-path="url(#pfebeab99ec)" style="fill: none; stroke-dasharray: 6.66,2.88; stroke-dashoffset: 0; stroke: #b33a3a; stroke-width: 1.8"/>
   </g>
   <g id="patch_8">
    <path d="M 118.8 223.0056 
L 286.2 223.0056 
Q 291.78 223.0056 291.78 217.4616 
L 291.78 200.8296 
Q 291.78 195.2856 286.2 195.2856 
L 118.8 195.2856 
Q 113.22 195.2856 113.22 200.8296 
L 113.22 217.4616 
Q 113.22 223.0056 118.8 223.0056 
z
" clip-path="url(#pfebeab99ec)" style="fill: #2e8b57; opacity: 0.85; stroke: #2e8b57; stroke-width: 2; stroke-linejoin: miter"/>
   </g>
   <g id="patch_9">
    <path d="M 118.8 409.284 
L 286.2 409.284 
Q 291.78 409.284 291.78 403.74 
L 291.78 387.108 
Q 291.78 381.564 286.2 381.564 
L 118.8 381.564 
Q 113.22 381.564 113.22 387.108 
L 113.22 403.74 
Q 113.22 409.284 118.8 409.284 
z
" clip-path="url(#pfebeab99ec)" style="fill: #2e6fa7; opacity: 0.85; stroke: #2e6fa7; stroke-width: 2; stroke-linejoin: miter"/>
   </g>
   <g id="patch_10">
    <path d="M 481.5 264.0312 
L 648.9 264.0312 
Q 654.48 264.0312 654.48 258.4872 
L 654.48 241.8552 
Q 654.48 236.3112 648.9 236.3112 
L 481.5 236.3112 
Q 475.92 236.3112 475.92 241.8552 
L 475.92 258.4872 
Q 475.92 264.0312 481.5 264.0312 
z
" clip-path="url(#pfebeab99ec)" style="fill: #c77f1a; opacity: 0.85; stroke: #c77f1a; stroke-width: 2; stroke-linejoin: miter"/>
   </g>
   <g id="patch_11">
    <path d="M 481.5 475.2576 
L 648.9 475.2576 
Q 654.48 475.2576 654.48 469.7136 
L 654.48 453.0816 
Q 654.48 447.5376 648.9 447.5376 
L 481.5 447.5376 
Q 475.92 447.5376 475.92 453.0816 
L 475.92 469.7136 
Q 475.92 475.2576 481.5 475.2576 
z
" clip-path="url(#pfebeab99ec)" style="fill: #7b3fa0; opacity: 0.85; stroke: #7b3fa0; stroke-width: 2; stroke-linejoin: miter"/>
   </g>
   <g id="patch_12">
    <path d="M 788.4 527.9256 
L 955.8 527.9256 
Q 961.38 527.9256 961.38 522.3816 
L 961.38 505.7496 
Q 961.38 500.2056 955.8 500.2056 
L 788.4 500.2056 
Q 782.82 500.2056 782.82 505.7496 
L 782.82 522.3816 
Q 782.82 527.9256 788.4 527.9256 
z
" clip-path="url(#pfebeab99ec)" style="fill: #b33a3a; opacity: 0.85; stroke: #b33a3a; stroke-width: 2; stroke-linejoin: miter"/>
   </g>
   <g id="patch_13">
    <path d="M 788.4 223.0056 
L 955.8 223.0056 
Q 961.38 223.0056 961.38 217.4616 
L 961.38 200.8296 
Q 961.38 195.2856 955.8 195.2856 
L 788.4 195.2856 
Q 782.82 195.2856 782.82 200.8296 
L 782.82 217.4616 
Q 782.82 223.0056 788.4 223.0056 
z
" clip-path="url(#pfebeab99ec)" style="fill: #2a7a7a; opacity: 0.85; stroke: #2a7a7a; stroke-width: 2; stroke-linejoin: miter"/>
   </g>
   <g id="patch_14">
    <path d="M 202.5 398.967504 
Q 202.5 378.790828 202.5 360.626613 
" style="fill: none; stroke: #2e8b57; stroke-width: 1.8; stroke-linecap: round"/>
    <path d="M 200.5 364.626613 
L 202.5 360.626613 
L 204.5 364.626613 
" style="fill: none; stroke: #2e8b57; stroke-width: 1.8; stroke-linecap: round"/>
   </g>
   <g id="text_1">
    <!-- 1 : N -->
    <g style="fill: #2e8b57" transform="translate(241.56 378.792) scale(0.09 -0.09)">
     <defs>
      <path id="SimHei-31" d="M 1400 3600 
Q 1075 3275 575 2975 
L 575 3450 
Q 1200 3875 1600 4450 
L 1900 4450 
L 1900 150 
L 1400 150 
L 1400 3600 
z
" transform="scale(0.015625)"/>
      <path id="SimHei-20" transform="scale(0.015625)"/>
      <path id="SimHei-3a" d="M 1825 2425 
L 1250 2425 
L 1250 2975 
L 1825 2975 
L 1825 2425 
z
M 1825 125 
L 1250 125 
L 1250 675 
L 1825 675 
L 1825 125 
z
" transform="scale(0.015625)"/>
      <path id="SimHei-4e" d="M 2850 125 
L 2225 125 
L 850 3225 
L 825 3225 
L 825 125 
L 250 125 
L 250 4400 
L 875 4400 
L 2250 1300 
L 2275 1300 
L 2275 4400 
L 2850 4400 
L 2850 125 
z
" transform="scale(0.015625)"/>
     </defs>
     <use xlink:href="#SimHei-31"/>
     <use xlink:href="#SimHei-20" transform="translate(50 0)"/>
     <use xlink:href="#SimHei-3a" transform="translate(100 0)"/>
     <use xlink:href="#SimHei-20" transform="translate(150 0)"/>
     <use xlink:href="#SimHei-4e" transform="translate(200 0)"/>
    </g>
   </g>
   <g id="patch_15">
    <path d="M 565.2 476.58215 
Q 565.2 461.952823 565.2 449.335956 
" style="fill: none; stroke: #c77f1a; stroke-width: 1.8; stroke-linecap: round"/>
    <path d="M 563.2 453.335956 
L 565.2 449.335956 
L 567.2 453.335956 
" style="fill: none; stroke: #c77f1a; stroke-width: 1.8; stroke-linecap: round"/>
   </g>
   <g id="text_2">
    <!-- 1 : N -->
    <g style="fill: #c77f1a" transform="translate(604.26 461.952) scale(0.09 -0.09)">
     <use xlink:href="#SimHei-31"/>
     <use xlink:href="#SimHei-20" transform="translate(50 0)"/>
     <use xlink:href="#SimHei-3a" transform="translate(100 0)"/>
     <use xlink:href="#SimHei-20" transform="translate(150 0)"/>
     <use xlink:href="#SimHei-4e" transform="translate(200 0)"/>
    </g>
   </g>
   <g id="patch_16">
    <path d="M 390.353302 538.846745 
Q 342.000703 520.164272 295.525313 502.207114 
" style="fill: none; stroke: #7b3fa0; stroke-width: 1.8; stroke-linecap: round"/>
    <path d="M 298.535661 505.51435 
L 295.525313 502.207114 
L 299.977311 501.783178 
" style="fill: none; stroke: #7b3fa0; stroke-width: 1.8; stroke-linecap: round"/>
   </g>
   <g id="text_3">
    <!-- N : 1 -->
    <g style="fill: #7b3fa0" transform="translate(330.84 500.76) scale(0.09 -0.09)">
     <use xlink:href="#SimHei-4e"/>
     <use xlink:href="#SimHei-20" transform="translate(50 0)"/>
     <use xlink:href="#SimHei-3a" transform="translate(100 0)"/>
     <use xlink:href="#SimHei-20" transform="translate(150 0)"/>
     <use xlink:href="#SimHei-31" transform="translate(200 0)"/>
    </g>
   </g>
   <g id="patch_17">
    <path d="M 872.1 665.07612 
Q 872.1 647.673684 872.1 632.283708 
" style="fill: none; stroke: #b33a3a; stroke-width: 1.8; stroke-linecap: round"/>
    <path d="M 870.1 636.283708 
L 872.1 632.283708 
L 874.1 636.283708 
" style="fill: none; stroke: #b33a3a; stroke-width: 1.8; stroke-linecap: round"/>
   </g>
   <g id="text_4">
    <!-- 1 : N -->
    <g style="fill: #b33a3a" transform="translate(704.7 683.712) scale(0.09 -0.09)">
     <use xlink:href="#SimHei-31"/>
     <use xlink:href="#SimHei-20" transform="translate(50 0)"/>
     <use xlink:href="#SimHei-3a" transform="translate(100 0)"/>
     <use xlink:href="#SimHei-20" transform="translate(150 0)"/>
     <use xlink:href="#SimHei-4e" transform="translate(200 0)"/>
    </g>
   </g>
   <g id="patch_18">
    <path d="M 780.823202 556.042189 
Q 537.299671 536.795974 295.782346 517.708314 
" style="fill: none; stroke-dasharray: 6.66,2.88; stroke-dashoffset: 0; stroke: #b33a3a; stroke-width: 1.8; stroke-linecap: round"/>
    <path d="M 299.612339 520.017244 
L 295.782346 517.708314 
L 299.927485 516.029678 
" style="fill: none; stroke-dasharray: 6.66,2.88; stroke-dashoffset: 0; stroke: #b33a3a; stroke-width: 1.8; stroke-linecap: round"/>
   </g>
   <g id="text_5">
    <!-- N : 1 -->
    <g style="fill: #b33a3a" transform="translate(509.4 595.008) scale(0.09 -0.09)">
     <use xlink:href="#SimHei-4e"/>
     <use xlink:href="#SimHei-20" transform="translate(50 0)"/>
     <use xlink:href="#SimHei-3a" transform="translate(100 0)"/>
     <use xlink:href="#SimHei-20" transform="translate(150 0)"/>
     <use xlink:href="#SimHei-31" transform="translate(200 0)"/>
    </g>
   </g>
   <g id="text_6">
    <!-- BookCategory -->
    <g style="fill: #ffffff" transform="translate(175.5 211.712006) scale(0.09 -0.09)">
     <defs>
      <path id="SimHei-42" d="M 2950 1400 
Q 2950 675 2550 400 
Q 2150 125 1525 125 
L 275 125 
L 275 4400 
L 1575 4400 
Q 2200 4400 2512 4075 
Q 2825 3750 2825 3300 
Q 2825 2850 2612 2637 
Q 2400 2425 2175 2350 
Q 2475 2275 2712 2037 
Q 2950 1800 2950 1400 
z
M 2250 3300 
Q 2250 3625 2062 3775 
Q 1875 3925 1600 3925 
L 850 3925 
L 850 2600 
L 1575 2600 
Q 1850 2600 2050 2762 
Q 2250 2925 2250 3300 
z
M 2350 1400 
Q 2350 1800 2087 1962 
Q 1825 2125 1500 2125 
L 850 2125 
L 850 600 
L 1425 600 
Q 1875 600 2112 775 
Q 2350 950 2350 1400 
z
" transform="scale(0.015625)"/>
      <path id="SimHei-6f" d="M 2925 1525 
Q 2925 875 2525 475 
Q 2125 75 1575 75 
Q 1025 75 625 475 
Q 225 875 225 1525 
Q 225 2175 625 2575 
Q 1025 2975 1575 2975 
Q 2125 2975 2525 2575 
Q 2925 2175 2925 1525 
z
M 2375 1525 
Q 2375 2025 2125 2275 
Q 1875 2525 1575 2525 
Q 1275 2525 1025 2275 
Q 775 2025 775 1525 
Q 775 1025 1025 775 
Q 1275 525 1575 525 
Q 1875 525 2125 775 
Q 2375 1025 2375 1525 
z
" transform="scale(0.015625)"/>
      <path id="SimHei-6b" d="M 2925 125 
L 2350 125 
L 1450 1650 
L 875 1100 
L 875 125 
L 375 125 
L 375 4400 
L 875 4400 
L 875 1675 
L 2125 2925 
L 2750 2925 
L 1775 1975 
L 2925 125 
z
" transform="scale(0.015625)"/>
      <path id="SimHei-43" d="M 2975 1825 
Q 2950 875 2575 475 
Q 2200 75 1675 75 
Q 1075 75 650 562 
Q 225 1050 225 2125 
Q 225 3300 637 3875 
Q 1050 4450 1700 4450 
Q 2250 4450 2612 4037 
Q 2975 3625 2950 2875 
L 2400 2875 
Q 2400 3425 2225 3700 
Q 2050 3975 1700 3975 
Q 1300 3975 1062 3562 
Q 825 3150 825 2175 
Q 825 1275 1062 912 
Q 1300 550 1675 550 
Q 1950 550 2175 812 
Q 2400 1075 2400 1825 
L 2975 1825 
z
" transform="scale(0.015625)"/>
      <path id="SimHei-61" d="M 2875 125 
L 2275 125 
Q 2225 175 2200 262 
Q 2175 350 2175 475 
Q 2000 275 1750 175 
Q 1500 75 1225 75 
Q 825 75 550 275 
Q 275 475 275 850 
Q 275 1225 525 1450 
Q 775 1675 1300 1750 
Q 1650 1800 1912 1875 
Q 2175 1950 2175 2075 
Q 2175 2225 2062 2375 
Q 1950 2525 1575 2525 
Q 1275 2525 1137 2412 
Q 1000 2300 950 2100 
L 400 2100 
Q 450 2500 762 2737 
Q 1075 2975 1575 2975 
Q 2125 2975 2400 2725 
Q 2675 2475 2675 2025 
L 2675 650 
Q 2675 500 2725 375 
Q 2775 250 2875 125 
z
M 2175 1050 
L 2175 1550 
Q 2025 1500 1887 1462 
Q 1750 1425 1425 1375 
Q 1050 1325 937 1200 
Q 825 1075 825 900 
Q 825 750 937 637 
Q 1050 525 1275 525 
Q 1500 525 1762 650 
Q 2025 775 2175 1050 
z
" transform="scale(0.015625)"/>
      <path id="SimHei-74" d="M 2750 200 
Q 2625 150 2462 112 
Q 2300 75 2025 75 
Q 1575 75 1300 325 
Q 1025 575 1025 1025 
L 1025 2525 
L 175 2525 
L 175 2925 
L 1025 2925 
L 1025 3900 
L 1525 3900 
L 1525 2925 
L 2550 2925 
L 2550 2525 
L 1525 2525 
L 1525 1000 
Q 1525 800 1625 662 
Q 1725 525 2000 525 
Q 2275 525 2450 575 
Q 2625 625 2750 700 
L 2750 200 
z
" transform="scale(0.015625)"/>
      <path id="SimHei-65" d="M 2850 1075 
Q 2800 625 2450 350 
Q 2100 75 1625 75 
Q 1025 75 637 462 
Q 250 850 250 1525 
Q 250 2200 637 2587 
Q 1025 2975 1625 2975 
Q 2150 2975 2487 2637 
Q 2825 2300 2825 1525 
L 800 1525 
Q 800 975 1037 750 
Q 1275 525 1625 525 
Q 1900 525 2075 662 
Q 2250 800 2300 1075 
L 2850 1075 
z
M 2250 1925 
Q 2200 2275 2025 2412 
Q 1850 2550 1575 2550 
Q 1325 2550 1125 2412 
Q 925 2275 825 1925 
L 2250 1925 
z
" transform="scale(0.015625)"/>
      <path id="SimHei-67" d="M 2975 2500 
Q 2800 2550 2637 2562 
Q 2475 2575 2300 2525 
Q 2375 2450 2425 2337 
Q 2475 2225 2475 2000 
Q 2475 1575 2187 1300 
Q 1900 1025 1475 1025 
Q 1375 1025 1212 1062 
Q 1050 1100 950 1150 
Q 875 1100 850 1050 
Q 825 1000 825 925 
Q 825 800 1000 737 
Q 1175 675 1625 675 
Q 2350 675 2612 475 
Q 2875 275 2875 -25 
Q 2875 -425 2487 -612 
Q 2100 -800 1575 -800 
Q 900 -800 575 -625 
Q 250 -450 250 -150 
Q 250 0 375 150 
Q 500 300 700 400 
Q 550 475 462 587 
Q 375 700 375 875 
Q 375 1025 487 1137 
Q 600 1250 750 1325 
Q 625 1450 550 1625 
Q 475 1800 475 2000 
Q 475 2425 762 2700 
Q 1050 2975 1475 2975 
Q 1700 2975 1862 2912 
Q 2025 2850 2150 2725 
Q 2350 2875 2550 2937 
Q 2750 3000 2975 2975 
L 2975 2500 
z
M 1975 2000 
Q 1975 2250 1850 2400 
Q 1725 2550 1475 2550 
Q 1225 2550 1100 2400 
Q 975 2250 975 2000 
Q 975 1750 1100 1600 
Q 1225 1450 1475 1450 
Q 1725 1450 1850 1600 
Q 1975 1750 1975 2000 
z
M 2400 -75 
Q 2400 25 2287 125 
Q 2175 225 1725 225 
Q 1625 225 1450 237 
Q 1275 250 1050 275 
Q 850 200 775 100 
Q 700 0 700 -100 
Q 700 -250 900 -350 
Q 1100 -450 1600 -450 
Q 2025 -450 2212 -337 
Q 2400 -225 2400 -75 
z
" transform="scale(0.015625)"/>
      <path id="SimHei-72" d="M 2500 2425 
Q 2025 2500 1700 2287 
Q 1375 2075 1150 1550 
L 1150 125 
L 650 125 
L 650 2925 
L 1150 2925 
L 1150 2200 
Q 1375 2600 1712 2787 
Q 2050 2975 2500 2975 
L 2500 2425 
z
" transform="scale(0.015625)"/>
      <path id="SimHei-79" d="M 2900 2925 
L 1750 -100 
Q 1650 -450 1450 -625 
Q 1250 -800 950 -800 
Q 825 -800 712 -787 
Q 600 -775 500 -725 
L 500 -225 
Q 600 -275 700 -300 
Q 800 -325 875 -325 
Q 1075 -325 1150 -262 
Q 1225 -200 1300 25 
L 200 2925 
L 750 2925 
L 1550 725 
L 1575 725 
L 2350 2925 
L 2900 2925 
z
" transform="scale(0.015625)"/>
     </defs>
     <use xlink:href="#SimHei-42"/>
     <use xlink:href="#SimHei-6f" transform="translate(50 0)"/>
     <use xlink:href="#SimHei-6f" transform="translate(100 0)"/>
     <use xlink:href="#SimHei-6b" transform="translate(150 0)"/>
     <use xlink:href="#SimHei-43" transform="translate(200 0)"/>
     <use xlink:href="#SimHei-61" transform="translate(250 0)"/>
     <use xlink:href="#SimHei-74" transform="translate(300 0)"/>
     <use xlink:href="#SimHei-65" transform="translate(350 0)"/>
     <use xlink:href="#SimHei-67" transform="translate(400 0)"/>
     <use xlink:href="#SimHei-6f" transform="translate(450 0)"/>
     <use xlink:href="#SimHei-72" transform="translate(500 0)"/>
     <use xlink:href="#SimHei-79" transform="translate(550 0)"/>
    </g>
   </g>
   <g id="text_7">
    <!-- id: Long (PK) -->
    <g style="fill: #333333" transform="translate(121.59 235.672012) scale(0.065 -0.065)">
     <defs>
      <path id="SimHei-69" d="M 1800 3725 
L 1300 3725 
L 1300 4375 
L 1800 4375 
L 1800 3725 
z
M 1800 125 
L 1300 125 
L 1300 2925 
L 1800 2925 
L 1800 125 
z
" transform="scale(0.015625)"/>
      <path id="SimHei-64" d="M 2750 125 
L 2250 125 
L 2250 500 
Q 2100 275 1900 175 
Q 1700 75 1425 75 
Q 925 75 575 437 
Q 225 800 225 1525 
Q 225 2250 575 2625 
Q 925 3000 1425 3000 
Q 1700 3000 1900 2887 
Q 2100 2775 2250 2550 
L 2250 4400 
L 2750 4400 
L 2750 125 
z
M 2250 1525 
Q 2250 2000 2037 2275 
Q 1825 2550 1525 2550 
Q 1150 2550 962 2275 
Q 775 2000 775 1525 
Q 775 1050 962 787 
Q 1150 525 1525 525 
Q 1825 525 2037 787 
Q 2250 1050 2250 1525 
z
" transform="scale(0.015625)"/>
      <path id="SimHei-4c" d="M 2900 125 
L 300 125 
L 300 4400 
L 875 4400 
L 875 600 
L 2900 600 
L 2900 125 
z
" transform="scale(0.015625)"/>
      <path id="SimHei-6e" d="M 2800 125 
L 2300 125 
L 2300 1925 
Q 2300 2225 2150 2400 
Q 2000 2575 1750 2575 
Q 1425 2575 1137 2237 
Q 850 1900 850 1400 
L 850 125 
L 350 125 
L 350 2925 
L 850 2925 
L 850 2400 
Q 1050 2675 1287 2825 
Q 1525 2975 1900 2975 
Q 2350 2975 2575 2725 
Q 2800 2475 2800 2100 
L 2800 125 
z
" transform="scale(0.015625)"/>
      <path id="SimHei-28" d="M 2975 -200 
L 2700 -475 
Q 2075 125 1762 775 
Q 1450 1425 1450 2250 
Q 1450 3075 1762 3725 
Q 2075 4375 2700 5000 
L 2975 4725 
Q 2400 4175 2112 3587 
Q 1825 3000 1825 2250 
Q 1825 1500 2112 912 
Q 2400 325 2975 -200 
z
" transform="scale(0.015625)"/>
      <path id="SimHei-50" d="M 2950 3100 
Q 2950 2500 2600 2150 
Q 2250 1800 1625 1800 
L 900 1800 
L 900 125 
L 325 125 
L 325 4400 
L 1625 4400 
Q 2250 4400 2600 4050 
Q 2950 3700 2950 3100 
z
M 2375 3100 
Q 2375 3575 2150 3750 
Q 1925 3925 1475 3925 
L 900 3925 
L 900 2275 
L 1475 2275 
Q 1925 2275 2150 2450 
Q 2375 2625 2375 3100 
z
" transform="scale(0.015625)"/>
      <path id="SimHei-4b" d="M 3050 125 
L 2400 125 
L 1250 2250 
L 850 1725 
L 850 125 
L 275 125 
L 275 4400 
L 850 4400 
L 850 2550 
L 2275 4400 
L 2950 4400 
L 1625 2725 
L 3050 125 
z
" transform="scale(0.015625)"/>
      <path id="SimHei-29" d="M 1675 2250 
Q 1675 1425 1362 775 
Q 1050 125 425 -475 
L 150 -200 
Q 725 325 1012 912 
Q 1300 1500 1300 2250 
Q 1300 3000 1012 3587 
Q 725 4175 150 4725 
L 425 5000 
Q 1050 4375 1362 3725 
Q 1675 3075 1675 2250 
z
" transform="scale(0.015625)"/>
     </defs>
     <use xlink:href="#SimHei-69"/>
     <use xlink:href="#SimHei-64" transform="translate(50 0)"/>
     <use xlink:href="#SimHei-3a" transform="translate(100 0)"/>
     <use xlink:href="#SimHei-20" transform="translate(150 0)"/>
     <use xlink:href="#SimHei-4c" transform="translate(200 0)"/>
     <use xlink:href="#SimHei-6f" transform="translate(250 0)"/>
     <use xlink:href="#SimHei-6e" transform="translate(300 0)"/>
     <use xlink:href="#SimHei-67" transform="translate(350 0)"/>
     <use xlink:href="#SimHei-20" transform="translate(400 0)"/>
     <use xlink:href="#SimHei-28" transform="translate(450 0)"/>
     <use xlink:href="#SimHei-50" transform="translate(500 0)"/>
     <use xlink:href="#SimHei-4b" transform="translate(550 0)"/>
     <use xlink:href="#SimHei-29" transform="translate(600 0)"/>
    </g>
   </g>
   <g id="text_8">
    <!-- name: String -->
    <g style="fill: #333333" transform="translate(121.59 256.459916) scale(0.065 -0.065)">
     <defs>
      <path id="SimHei-6d" d="M 3050 125 
L 2550 125 
L 2550 2150 
Q 2550 2300 2500 2400 
Q 2450 2500 2300 2500 
Q 2125 2500 1975 2312 
Q 1825 2125 1825 1825 
L 1825 125 
L 1325 125 
L 1325 2150 
Q 1325 2300 1275 2400 
Q 1225 2500 1075 2500 
Q 900 2500 750 2312 
Q 600 2125 600 1825 
L 600 125 
L 100 125 
L 100 2925 
L 600 2925 
L 600 2550 
Q 725 2750 900 2862 
Q 1075 2975 1275 2975 
Q 1475 2975 1612 2862 
Q 1750 2750 1800 2550 
Q 1925 2750 2087 2862 
Q 2250 2975 2450 2975 
Q 2750 2975 2900 2812 
Q 3050 2650 3050 2350 
L 3050 125 
z
" transform="scale(0.015625)"/>
      <path id="SimHei-53" d="M 2900 1325 
Q 2900 750 2537 412 
Q 2175 75 1550 75 
Q 925 75 575 425 
Q 225 775 225 1300 
L 225 1475 
L 800 1475 
L 800 1325 
Q 800 950 1025 750 
Q 1250 550 1550 550 
Q 1950 550 2137 762 
Q 2325 975 2325 1275 
Q 2325 1525 2100 1737 
Q 1875 1950 1450 2125 
Q 850 2350 587 2625 
Q 325 2900 325 3275 
Q 325 3800 687 4125 
Q 1050 4450 1550 4450 
Q 2200 4450 2487 4062 
Q 2775 3675 2775 3225 
L 2200 3225 
Q 2225 3500 2050 3725 
Q 1875 3950 1550 3950 
Q 1250 3950 1075 3787 
Q 900 3625 900 3350 
Q 900 3125 1037 2962 
Q 1175 2800 1750 2575 
Q 2300 2350 2600 2037 
Q 2900 1725 2900 1325 
z
" transform="scale(0.015625)"/>
     </defs>
     <use xlink:href="#SimHei-6e"/>
     <use xlink:href="#SimHei-61" transform="translate(50 0)"/>
     <use xlink:href="#SimHei-6d" transform="translate(100 0)"/>
     <use xlink:href="#SimHei-65" transform="translate(150 0)"/>
     <use xlink:href="#SimHei-3a" transform="translate(200 0)"/>
     <use xlink:href="#SimHei-20" transform="translate(250 0)"/>
     <use xlink:href="#SimHei-53" transform="translate(300 0)"/>
     <use xlink:href="#SimHei-74" transform="translate(350 0)"/>
     <use xlink:href="#SimHei-72" transform="translate(400 0)"/>
     <use xlink:href="#SimHei-69" transform="translate(450 0)"/>
     <use xlink:href="#SimHei-6e" transform="translate(500 0)"/>
     <use xlink:href="#SimHei-67" transform="translate(550 0)"/>
    </g>
   </g>
   <g id="text_9">
    <!-- description: String -->
    <g style="fill: #333333" transform="translate(121.59 277.527116) scale(0.065 -0.065)">
     <defs>
      <path id="SimHei-73" d="M 2750 900 
Q 2750 500 2437 287 
Q 2125 75 1650 75 
Q 1050 75 725 312 
Q 400 550 400 1000 
L 900 1000 
Q 900 700 1112 600 
Q 1325 500 1625 500 
Q 1925 500 2075 612 
Q 2225 725 2225 900 
Q 2225 1025 2100 1150 
Q 1975 1275 1475 1350 
Q 900 1425 687 1637 
Q 475 1850 475 2200 
Q 475 2500 762 2737 
Q 1050 2975 1600 2975 
Q 2100 2975 2387 2750 
Q 2675 2525 2675 2150 
L 2175 2150 
Q 2175 2375 2012 2462 
Q 1850 2550 1600 2550 
Q 1275 2550 1137 2437 
Q 1000 2325 1000 2175 
Q 1000 2000 1125 1900 
Q 1250 1800 1650 1750 
Q 2300 1650 2525 1437 
Q 2750 1225 2750 900 
z
" transform="scale(0.015625)"/>
      <path id="SimHei-63" d="M 2850 1250 
Q 2850 725 2487 400 
Q 2125 75 1575 75 
Q 1025 75 625 462 
Q 225 850 225 1525 
Q 225 2200 625 2587 
Q 1025 2975 1575 2975 
Q 2125 2975 2450 2687 
Q 2775 2400 2775 2000 
L 2225 2000 
Q 2200 2300 2012 2412 
Q 1825 2525 1575 2525 
Q 1275 2525 1025 2287 
Q 775 2050 775 1525 
Q 775 1000 1025 762 
Q 1275 525 1575 525 
Q 1900 525 2100 700 
Q 2300 875 2300 1250 
L 2850 1250 
z
" transform="scale(0.015625)"/>
      <path id="SimHei-70" d="M 2825 1525 
Q 2825 800 2475 425 
Q 2125 50 1625 50 
Q 1350 50 1150 162 
Q 950 275 800 500 
L 800 -800 
L 300 -800 
L 300 2925 
L 800 2925 
L 800 2550 
Q 950 2775 1150 2875 
Q 1350 2975 1625 2975 
Q 2125 2975 2475 2612 
Q 2825 2250 2825 1525 
z
M 2275 1525 
Q 2275 2000 2087 2262 
Q 1900 2525 1525 2525 
Q 1225 2525 1012 2262 
Q 800 2000 800 1525 
Q 800 1050 1012 775 
Q 1225 500 1525 500 
Q 1900 500 2087 775 
Q 2275 1050 2275 1525 
z
" transform="scale(0.015625)"/>
     </defs>
     <use xlink:href="#SimHei-64"/>
     <use xlink:href="#SimHei-65" transform="translate(50 0)"/>
     <use xlink:href="#SimHei-73" transform="translate(100 0)"/>
     <use xlink:href="#SimHei-63" transform="translate(150 0)"/>
     <use xlink:href="#SimHei-72" transform="translate(200 0)"/>
     <use xlink:href="#SimHei-69" transform="translate(250 0)"/>
     <use xlink:href="#SimHei-70" transform="translate(300 0)"/>
     <use xlink:href="#SimHei-74" transform="translate(350 0)"/>
     <use xlink:href="#SimHei-69" transform="translate(400 0)"/>
     <use xlink:href="#SimHei-6f" transform="translate(450 0)"/>
     <use xlink:href="#SimHei-6e" transform="translate(500 0)"/>
     <use xlink:href="#SimHei-3a" transform="translate(550 0)"/>
     <use xlink:href="#SimHei-20" transform="translate(600 0)"/>
     <use xlink:href="#SimHei-53" transform="translate(650 0)"/>
     <use xlink:href="#SimHei-74" transform="translate(700 0)"/>
     <use xlink:href="#SimHei-72" transform="translate(750 0)"/>
     <use xlink:href="#SimHei-69" transform="translate(800 0)"/>
     <use xlink:href="#SimHei-6e" transform="translate(850 0)"/>
     <use xlink:href="#SimHei-67" transform="translate(900 0)"/>
    </g>
   </g>
   <g id="text_10">
    <!-- sortOrder: Integer -->
    <g style="fill: #333333" transform="translate(121.59 298.594316) scale(0.065 -0.065)">
     <defs>
      <path id="SimHei-4f" d="M 2950 2275 
Q 2950 1100 2587 587 
Q 2225 75 1575 75 
Q 925 75 550 587 
Q 175 1100 175 2275 
Q 175 3450 550 3950 
Q 925 4450 1575 4450 
Q 2225 4450 2587 3950 
Q 2950 3450 2950 2275 
z
M 2350 2275 
Q 2350 3325 2125 3650 
Q 1900 3975 1575 3975 
Q 1250 3975 1012 3650 
Q 775 3325 775 2275 
Q 775 1225 1012 887 
Q 1250 550 1575 550 
Q 1900 550 2125 887 
Q 2350 1225 2350 2275 
z
" transform="scale(0.015625)"/>
      <path id="SimHei-49" d="M 1850 125 
L 1275 125 
L 1275 4400 
L 1850 4400 
L 1850 125 
z
" transform="scale(0.015625)"/>
     </defs>
     <use xlink:href="#SimHei-73"/>
     <use xlink:href="#SimHei-6f" transform="translate(50 0)"/>
     <use xlink:href="#SimHei-72" transform="translate(100 0)"/>
     <use xlink:href="#SimHei-74" transform="translate(150 0)"/>
     <use xlink:href="#SimHei-4f" transform="translate(200 0)"/>
     <use xlink:href="#SimHei-72" transform="translate(250 0)"/>
     <use xlink:href="#SimHei-64" transform="translate(300 0)"/>
     <use xlink:href="#SimHei-65" transform="translate(350 0)"/>
     <use xlink:href="#SimHei-72" transform="translate(400 0)"/>
     <use xlink:href="#SimHei-3a" transform="translate(450 0)"/>
     <use xlink:href="#SimHei-20" transform="translate(500 0)"/>
     <use xlink:href="#SimHei-49" transform="translate(550 0)"/>
     <use xlink:href="#SimHei-6e" transform="translate(600 0)"/>
     <use xlink:href="#SimHei-74" transform="translate(650 0)"/>
     <use xlink:href="#SimHei-65" transform="translate(700 0)"/>
     <use xlink:href="#SimHei-67" transform="translate(750 0)"/>
     <use xlink:href="#SimHei-65" transform="translate(800 0)"/>
     <use xlink:href="#SimHei-72" transform="translate(850 0)"/>
    </g>
   </g>
   <g id="text_11">
    <!-- Book -->
    <g style="fill: #ffffff" transform="translate(193.5 397.95525) scale(0.09 -0.09)">
     <use xlink:href="#SimHei-42"/>
     <use xlink:href="#SimHei-6f" transform="translate(50 0)"/>
     <use xlink:href="#SimHei-6f" transform="translate(100 0)"/>
     <use xlink:href="#SimHei-6b" transform="translate(150 0)"/>
    </g>
   </g>
   <g id="text_12">
    <!-- id: Long (PK) -->
    <g style="fill: #333333" transform="translate(121.59 421.950412) scale(0.065 -0.065)">
     <use xlink:href="#SimHei-69"/>
     <use xlink:href="#SimHei-64" transform="translate(50 0)"/>
     <use xlink:href="#SimHei-3a" transform="translate(100 0)"/>
     <use xlink:href="#SimHei-20" transform="translate(150 0)"/>
     <use xlink:href="#SimHei-4c" transform="translate(200 0)"/>
     <use xlink:href="#SimHei-6f" transform="translate(250 0)"/>
     <use xlink:href="#SimHei-6e" transform="translate(300 0)"/>
     <use xlink:href="#SimHei-67" transform="translate(350 0)"/>
     <use xlink:href="#SimHei-20" transform="translate(400 0)"/>
     <use xlink:href="#SimHei-28" transform="translate(450 0)"/>
     <use xlink:href="#SimHei-50" transform="translate(500 0)"/>
     <use xlink:href="#SimHei-4b" transform="translate(550 0)"/>
     <use xlink:href="#SimHei-29" transform="translate(600 0)"/>
    </g>
   </g>
   <g id="text_13">
    <!-- title: String -->
    <g style="fill: #333333" transform="translate(121.59 442.738316) scale(0.065 -0.065)">
     <defs>
      <path id="SimHei-6c" d="M 1825 125 
L 1325 125 
L 1325 4400 
L 1825 4400 
L 1825 125 
z
" transform="scale(0.015625)"/>
     </defs>
     <use xlink:href="#SimHei-74"/>
     <use xlink:href="#SimHei-69" transform="translate(50 0)"/>
     <use xlink:href="#SimHei-74" transform="translate(100 0)"/>
     <use xlink:href="#SimHei-6c" transform="translate(150 0)"/>
     <use xlink:href="#SimHei-65" transform="translate(200 0)"/>
     <use xlink:href="#SimHei-3a" transform="translate(250 0)"/>
     <use xlink:href="#SimHei-20" transform="translate(300 0)"/>
     <use xlink:href="#SimHei-53" transform="translate(350 0)"/>
     <use xlink:href="#SimHei-74" transform="translate(400 0)"/>
     <use xlink:href="#SimHei-72" transform="translate(450 0)"/>
     <use xlink:href="#SimHei-69" transform="translate(500 0)"/>
     <use xlink:href="#SimHei-6e" transform="translate(550 0)"/>
     <use xlink:href="#SimHei-67" transform="translate(600 0)"/>
    </g>
   </g>
   <g id="text_14">
    <!-- author: String -->
    <g style="fill: #333333" transform="translate(121.59 463.805516) scale(0.065 -0.065)">
     <defs>
      <path id="SimHei-75" d="M 2800 125 
L 2300 125 
L 2300 650 
Q 2100 375 1862 225 
Q 1625 75 1250 75 
Q 800 75 575 325 
Q 350 575 350 950 
L 350 2925 
L 850 2925 
L 850 1125 
Q 850 825 1000 650 
Q 1150 475 1400 475 
Q 1725 475 2012 812 
Q 2300 1150 2300 1650 
L 2300 2925 
L 2800 2925 
L 2800 125 
z
" transform="scale(0.015625)"/>
      <path id="SimHei-68" d="M 2800 125 
L 2300 125 
L 2300 1925 
Q 2300 2225 2150 2400 
Q 2000 2575 1750 2575 
Q 1425 2575 1137 2237 
Q 850 1900 850 1400 
L 850 125 
L 350 125 
L 350 4400 
L 850 4400 
L 850 2400 
Q 1050 2675 1287 2825 
Q 1525 2975 1900 2975 
Q 2350 2975 2575 2725 
Q 2800 2475 2800 2100 
L 2800 125 
z
" transform="scale(0.015625)"/>
     </defs>
     <use xlink:href="#SimHei-61"/>
     <use xlink:href="#SimHei-75" transform="translate(50 0)"/>
     <use xlink:href="#SimHei-74" transform="translate(100 0)"/>
     <use xlink:href="#SimHei-68" transform="translate(150 0)"/>
     <use xlink:href="#SimHei-6f" transform="translate(200 0)"/>
     <use xlink:href="#SimHei-72" transform="translate(250 0)"/>
     <use xlink:href="#SimHei-3a" transform="translate(300 0)"/>
     <use xlink:href="#SimHei-20" transform="translate(350 0)"/>
     <use xlink:href="#SimHei-53" transform="translate(400 0)"/>
     <use xlink:href="#SimHei-74" transform="translate(450 0)"/>
     <use xlink:href="#SimHei-72" transform="translate(500 0)"/>
     <use xlink:href="#SimHei-69" transform="translate(550 0)"/>
     <use xlink:href="#SimHei-6e" transform="translate(600 0)"/>
     <use xlink:href="#SimHei-67" transform="translate(650 0)"/>
    </g>
   </g>
   <g id="text_15">
    <!-- isbn: String -->
    <g style="fill: #333333" transform="translate(121.59 484.872716) scale(0.065 -0.065)">
     <defs>
      <path id="SimHei-62" d="M 2825 1525 
Q 2825 800 2475 437 
Q 2125 75 1625 75 
Q 1350 75 1150 175 
Q 950 275 800 500 
L 800 125 
L 300 125 
L 300 4400 
L 800 4400 
L 800 2550 
Q 950 2775 1150 2887 
Q 1350 3000 1625 3000 
Q 2125 3000 2475 2625 
Q 2825 2250 2825 1525 
z
M 2275 1525 
Q 2275 2000 2087 2275 
Q 1900 2550 1525 2550 
Q 1225 2550 1012 2275 
Q 800 2000 800 1525 
Q 800 1050 1012 787 
Q 1225 525 1525 525 
Q 1900 525 2087 787 
Q 2275 1050 2275 1525 
z
" transform="scale(0.015625)"/>
     </defs>
     <use xlink:href="#SimHei-69"/>
     <use xlink:href="#SimHei-73" transform="translate(50 0)"/>
     <use xlink:href="#SimHei-62" transform="translate(100 0)"/>
     <use xlink:href="#SimHei-6e" transform="translate(150 0)"/>
     <use xlink:href="#SimHei-3a" transform="translate(200 0)"/>
     <use xlink:href="#SimHei-20" transform="translate(250 0)"/>
     <use xlink:href="#SimHei-53" transform="translate(300 0)"/>
     <use xlink:href="#SimHei-74" transform="translate(350 0)"/>
     <use xlink:href="#SimHei-72" transform="translate(400 0)"/>
     <use xlink:href="#SimHei-69" transform="translate(450 0)"/>
     <use xlink:href="#SimHei-6e" transform="translate(500 0)"/>
     <use xlink:href="#SimHei-67" transform="translate(550 0)"/>
    </g>
   </g>
   <g id="text_16">
    <!-- category_id: Long (FK) -->
    <g style="fill: #333333" transform="translate(121.59 506.193822) scale(0.065 -0.065)">
     <defs>
      <path id="SimHei-5f" d="M 3150 -850 
L 0 -850 
L 0 -550 
L 3150 -550 
L 3150 -850 
z
" transform="scale(0.015625)"/>
      <path id="SimHei-46" d="M 2925 3925 
L 875 3925 
L 875 2525 
L 2425 2525 
L 2425 2050 
L 875 2050 
L 875 125 
L 300 125 
L 300 4400 
L 2925 4400 
L 2925 3925 
z
" transform="scale(0.015625)"/>
     </defs>
     <use xlink:href="#SimHei-63"/>
     <use xlink:href="#SimHei-61" transform="translate(50 0)"/>
     <use xlink:href="#SimHei-74" transform="translate(100 0)"/>
     <use xlink:href="#SimHei-65" transform="translate(150 0)"/>
     <use xlink:href="#SimHei-67" transform="translate(200 0)"/>
     <use xlink:href="#SimHei-6f" transform="translate(250 0)"/>
     <use xlink:href="#SimHei-72" transform="translate(300 0)"/>
     <use xlink:href="#SimHei-79" transform="translate(350 0)"/>
     <use xlink:href="#SimHei-5f" transform="translate(400 0)"/>
     <use xlink:href="#SimHei-69" transform="translate(450 0)"/>
     <use xlink:href="#SimHei-64" transform="translate(500 0)"/>
     <use xlink:href="#SimHei-3a" transform="translate(550 0)"/>
     <use xlink:href="#SimHei-20" transform="translate(600 0)"/>
     <use xlink:href="#SimHei-4c" transform="translate(650 0)"/>
     <use xlink:href="#SimHei-6f" transform="translate(700 0)"/>
     <use xlink:href="#SimHei-6e" transform="translate(750 0)"/>
     <use xlink:href="#SimHei-67" transform="translate(800 0)"/>
     <use xlink:href="#SimHei-20" transform="translate(850 0)"/>
     <use xlink:href="#SimHei-28" transform="translate(900 0)"/>
     <use xlink:href="#SimHei-46" transform="translate(950 0)"/>
     <use xlink:href="#SimHei-4b" transform="translate(1000 0)"/>
     <use xlink:href="#SimHei-29" transform="translate(1050 0)"/>
    </g>
   </g>
   <g id="text_17">
    <!-- publisher: String -->
    <g style="fill: #333333" transform="translate(121.59 527.007116) scale(0.065 -0.065)">
     <use xlink:href="#SimHei-70"/>
     <use xlink:href="#SimHei-75" transform="translate(50 0)"/>
     <use xlink:href="#SimHei-62" transform="translate(100 0)"/>
     <use xlink:href="#SimHei-6c" transform="translate(150 0)"/>
     <use xlink:href="#SimHei-69" transform="translate(200 0)"/>
     <use xlink:href="#SimHei-73" transform="translate(250 0)"/>
     <use xlink:href="#SimHei-68" transform="translate(300 0)"/>
     <use xlink:href="#SimHei-65" transform="translate(350 0)"/>
     <use xlink:href="#SimHei-72" transform="translate(400 0)"/>
     <use xlink:href="#SimHei-3a" transform="translate(450 0)"/>
     <use xlink:href="#SimHei-20" transform="translate(500 0)"/>
     <use xlink:href="#SimHei-53" transform="translate(550 0)"/>
     <use xlink:href="#SimHei-74" transform="translate(600 0)"/>
     <use xlink:href="#SimHei-72" transform="translate(650 0)"/>
     <use xlink:href="#SimHei-69" transform="translate(700 0)"/>
     <use xlink:href="#SimHei-6e" transform="translate(750 0)"/>
     <use xlink:href="#SimHei-67" transform="translate(800 0)"/>
    </g>
   </g>
   <g id="text_18">
    <!-- publishYear: Integer -->
    <g style="fill: #333333" transform="translate(121.59 548.048925) scale(0.065 -0.065)">
     <defs>
      <path id="SimHei-59" d="M 3025 4400 
L 1850 2050 
L 1850 125 
L 1275 125 
L 1275 2050 
L 100 4400 
L 675 4400 
L 1550 2575 
L 1575 2575 
L 2450 4400 
L 3025 4400 
z
" transform="scale(0.015625)"/>
     </defs>
     <use xlink:href="#SimHei-70"/>
     <use xlink:href="#SimHei-75" transform="translate(50 0)"/>
     <use xlink:href="#SimHei-62" transform="translate(100 0)"/>
     <use xlink:href="#SimHei-6c" transform="translate(150 0)"/>
     <use xlink:href="#SimHei-69" transform="translate(200 0)"/>
     <use xlink:href="#SimHei-73" transform="translate(250 0)"/>
     <use xlink:href="#SimHei-68" transform="translate(300 0)"/>
     <use xlink:href="#SimHei-59" transform="translate(350 0)"/>
     <use xlink:href="#SimHei-65" transform="translate(400 0)"/>
     <use xlink:href="#SimHei-61" transform="translate(450 0)"/>
     <use xlink:href="#SimHei-72" transform="translate(500 0)"/>
     <use xlink:href="#SimHei-3a" transform="translate(550 0)"/>
     <use xlink:href="#SimHei-20" transform="translate(600 0)"/>
     <use xlink:href="#SimHei-49" transform="translate(650 0)"/>
     <use xlink:href="#SimHei-6e" transform="translate(700 0)"/>
     <use xlink:href="#SimHei-74" transform="translate(750 0)"/>
     <use xlink:href="#SimHei-65" transform="translate(800 0)"/>
     <use xlink:href="#SimHei-67" transform="translate(850 0)"/>
     <use xlink:href="#SimHei-65" transform="translate(900 0)"/>
     <use xlink:href="#SimHei-72" transform="translate(950 0)"/>
    </g>
   </g>
   <g id="text_19">
    <!-- totalCopies: Integer -->
    <g style="fill: #333333" transform="translate(121.59 569.141516) scale(0.065 -0.065)">
     <use xlink:href="#SimHei-74"/>
     <use xlink:href="#SimHei-6f" transform="translate(50 0)"/>
     <use xlink:href="#SimHei-74" transform="translate(100 0)"/>
     <use xlink:href="#SimHei-61" transform="translate(150 0)"/>
     <use xlink:href="#SimHei-6c" transform="translate(200 0)"/>
     <use xlink:href="#SimHei-43" transform="translate(250 0)"/>
     <use xlink:href="#SimHei-6f" transform="translate(300 0)"/>
     <use xlink:href="#SimHei-70" transform="translate(350 0)"/>
     <use xlink:href="#SimHei-69" transform="translate(400 0)"/>
     <use xlink:href="#SimHei-65" transform="translate(450 0)"/>
     <use xlink:href="#SimHei-73" transform="translate(500 0)"/>
     <use xlink:href="#SimHei-3a" transform="translate(550 0)"/>
     <use xlink:href="#SimHei-20" transform="translate(600 0)"/>
     <use xlink:href="#SimHei-49" transform="translate(650 0)"/>
     <use xlink:href="#SimHei-6e" transform="translate(700 0)"/>
     <use xlink:href="#SimHei-74" transform="translate(750 0)"/>
     <use xlink:href="#SimHei-65" transform="translate(800 0)"/>
     <use xlink:href="#SimHei-67" transform="translate(850 0)"/>
     <use xlink:href="#SimHei-65" transform="translate(900 0)"/>
     <use xlink:href="#SimHei-72" transform="translate(950 0)"/>
    </g>
   </g>
   <g id="text_20">
    <!-- availableCopies: Integer -->
    <g style="fill: #333333" transform="translate(121.59 590.208716) scale(0.065 -0.065)">
     <defs>
      <path id="SimHei-76" d="M 2875 2925 
L 1825 75 
L 1275 75 
L 225 2925 
L 750 2925 
L 1525 750 
L 1575 750 
L 2350 2925 
L 2875 2925 
z
" transform="scale(0.015625)"/>
     </defs>
     <use xlink:href="#SimHei-61"/>
     <use xlink:href="#SimHei-76" transform="translate(50 0)"/>
     <use xlink:href="#SimHei-61" transform="translate(100 0)"/>
     <use xlink:href="#SimHei-69" transform="translate(150 0)"/>
     <use xlink:href="#SimHei-6c" transform="translate(200 0)"/>
     <use xlink:href="#SimHei-61" transform="translate(250 0)"/>
     <use xlink:href="#SimHei-62" transform="translate(300 0)"/>
     <use xlink:href="#SimHei-6c" transform="translate(350 0)"/>
     <use xlink:href="#SimHei-65" transform="translate(400 0)"/>
     <use xlink:href="#SimHei-43" transform="translate(450 0)"/>
     <use xlink:href="#SimHei-6f" transform="translate(500 0)"/>
     <use xlink:href="#SimHei-70" transform="translate(550 0)"/>
     <use xlink:href="#SimHei-69" transform="translate(600 0)"/>
     <use xlink:href="#SimHei-65" transform="translate(650 0)"/>
     <use xlink:href="#SimHei-73" transform="translate(700 0)"/>
     <use xlink:href="#SimHei-3a" transform="translate(750 0)"/>
     <use xlink:href="#SimHei-20" transform="translate(800 0)"/>
     <use xlink:href="#SimHei-49" transform="translate(850 0)"/>
     <use xlink:href="#SimHei-6e" transform="translate(900 0)"/>
     <use xlink:href="#SimHei-74" transform="translate(950 0)"/>
     <use xlink:href="#SimHei-65" transform="translate(1000 0)"/>
     <use xlink:href="#SimHei-67" transform="translate(1050 0)"/>
     <use xlink:href="#SimHei-65" transform="translate(1100 0)"/>
     <use xlink:href="#SimHei-72" transform="translate(1150 0)"/>
    </g>
   </g>
   <g id="text_21">
    <!-- version: Integer -->
    <g style="fill: #333333" transform="translate(121.59 611.250525) scale(0.065 -0.065)">
     <use xlink:href="#SimHei-76"/>
     <use xlink:href="#SimHei-65" transform="translate(50 0)"/>
     <use xlink:href="#SimHei-72" transform="translate(100 0)"/>
     <use xlink:href="#SimHei-73" transform="translate(150 0)"/>
     <use xlink:href="#SimHei-69" transform="translate(200 0)"/>
     <use xlink:href="#SimHei-6f" transform="translate(250 0)"/>
     <use xlink:href="#SimHei-6e" transform="translate(300 0)"/>
     <use xlink:href="#SimHei-3a" transform="translate(350 0)"/>
     <use xlink:href="#SimHei-20" transform="translate(400 0)"/>
     <use xlink:href="#SimHei-49" transform="translate(450 0)"/>
     <use xlink:href="#SimHei-6e" transform="translate(500 0)"/>
     <use xlink:href="#SimHei-74" transform="translate(550 0)"/>
     <use xlink:href="#SimHei-65" transform="translate(600 0)"/>
     <use xlink:href="#SimHei-67" transform="translate(650 0)"/>
     <use xlink:href="#SimHei-65" transform="translate(700 0)"/>
     <use xlink:href="#SimHei-72" transform="translate(750 0)"/>
    </g>
   </g>
   <g id="text_22">
    <!-- Reader -->
    <g style="fill: #ffffff" transform="translate(551.7 252.70245) scale(0.09 -0.09)">
     <defs>
      <path id="SimHei-52" d="M 3000 125 
L 2400 125 
L 1500 1975 
L 850 1975 
L 850 125 
L 275 125 
L 275 4400 
L 1525 4400 
Q 2125 4400 2500 4112 
Q 2875 3825 2875 3175 
Q 2875 2675 2625 2400 
Q 2375 2125 2050 2050 
L 3000 125 
z
M 2300 3175 
Q 2300 3525 2087 3725 
Q 1875 3925 1400 3925 
L 850 3925 
L 850 2450 
L 1550 2450 
Q 1850 2450 2075 2612 
Q 2300 2775 2300 3175 
z
" transform="scale(0.015625)"/>
     </defs>
     <use xlink:href="#SimHei-52"/>
     <use xlink:href="#SimHei-65" transform="translate(50 0)"/>
     <use xlink:href="#SimHei-61" transform="translate(100 0)"/>
     <use xlink:href="#SimHei-64" transform="translate(150 0)"/>
     <use xlink:href="#SimHei-65" transform="translate(200 0)"/>
     <use xlink:href="#SimHei-72" transform="translate(250 0)"/>
    </g>
   </g>
   <g id="text_23">
    <!-- id: Long (PK) -->
    <g style="fill: #333333" transform="translate(484.29 276.697612) scale(0.065 -0.065)">
     <use xlink:href="#SimHei-69"/>
     <use xlink:href="#SimHei-64" transform="translate(50 0)"/>
     <use xlink:href="#SimHei-3a" transform="translate(100 0)"/>
     <use xlink:href="#SimHei-20" transform="translate(150 0)"/>
     <use xlink:href="#SimHei-4c" transform="translate(200 0)"/>
     <use xlink:href="#SimHei-6f" transform="translate(250 0)"/>
     <use xlink:href="#SimHei-6e" transform="translate(300 0)"/>
     <use xlink:href="#SimHei-67" transform="translate(350 0)"/>
     <use xlink:href="#SimHei-20" transform="translate(400 0)"/>
     <use xlink:href="#SimHei-28" transform="translate(450 0)"/>
     <use xlink:href="#SimHei-50" transform="translate(500 0)"/>
     <use xlink:href="#SimHei-4b" transform="translate(550 0)"/>
     <use xlink:href="#SimHei-29" transform="translate(600 0)"/>
    </g>
   </g>
   <g id="text_24">
    <!-- readerNo: String -->
    <g style="fill: #333333" transform="translate(484.29 297.485516) scale(0.065 -0.065)">
     <use xlink:href="#SimHei-72"/>
     <use xlink:href="#SimHei-65" transform="translate(50 0)"/>
     <use xlink:href="#SimHei-61" transform="translate(100 0)"/>
     <use xlink:href="#SimHei-64" transform="translate(150 0)"/>
     <use xlink:href="#SimHei-65" transform="translate(200 0)"/>
     <use xlink:href="#SimHei-72" transform="translate(250 0)"/>
     <use xlink:href="#SimHei-4e" transform="translate(300 0)"/>
     <use xlink:href="#SimHei-6f" transform="translate(350 0)"/>
     <use xlink:href="#SimHei-3a" transform="translate(400 0)"/>
     <use xlink:href="#SimHei-20" transform="translate(450 0)"/>
     <use xlink:href="#SimHei-53" transform="translate(500 0)"/>
     <use xlink:href="#SimHei-74" transform="translate(550 0)"/>
     <use xlink:href="#SimHei-72" transform="translate(600 0)"/>
     <use xlink:href="#SimHei-69" transform="translate(650 0)"/>
     <use xlink:href="#SimHei-6e" transform="translate(700 0)"/>
     <use xlink:href="#SimHei-67" transform="translate(750 0)"/>
    </g>
   </g>
   <g id="text_25">
    <!-- password: String -->
    <g style="fill: #333333" transform="translate(484.29 318.552716) scale(0.065 -0.065)">
     <defs>
      <path id="SimHei-77" d="M 3075 2925 
L 2450 75 
L 1975 75 
L 1575 2250 
L 1525 2250 
L 1125 75 
L 650 75 
L 25 2925 
L 550 2925 
L 875 1050 
L 925 1050 
L 1275 2925 
L 1825 2925 
L 2175 1050 
L 2225 1050 
L 2550 2925 
L 3075 2925 
z
" transform="scale(0.015625)"/>
     </defs>
     <use xlink:href="#SimHei-70"/>
     <use xlink:href="#SimHei-61" transform="translate(50 0)"/>
     <use xlink:href="#SimHei-73" transform="translate(100 0)"/>
     <use xlink:href="#SimHei-73" transform="translate(150 0)"/>
     <use xlink:href="#SimHei-77" transform="translate(200 0)"/>
     <use xlink:href="#SimHei-6f" transform="translate(250 0)"/>
     <use xlink:href="#SimHei-72" transform="translate(300 0)"/>
     <use xlink:href="#SimHei-64" transform="translate(350 0)"/>
     <use xlink:href="#SimHei-3a" transform="translate(400 0)"/>
     <use xlink:href="#SimHei-20" transform="translate(450 0)"/>
     <use xlink:href="#SimHei-53" transform="translate(500 0)"/>
     <use xlink:href="#SimHei-74" transform="translate(550 0)"/>
     <use xlink:href="#SimHei-72" transform="translate(600 0)"/>
     <use xlink:href="#SimHei-69" transform="translate(650 0)"/>
     <use xlink:href="#SimHei-6e" transform="translate(700 0)"/>
     <use xlink:href="#SimHei-67" transform="translate(750 0)"/>
    </g>
   </g>
   <g id="text_26">
    <!-- name: String -->
    <g style="fill: #333333" transform="translate(484.29 339.619916) scale(0.065 -0.065)">
     <use xlink:href="#SimHei-6e"/>
     <use xlink:href="#SimHei-61" transform="translate(50 0)"/>
     <use xlink:href="#SimHei-6d" transform="translate(100 0)"/>
     <use xlink:href="#SimHei-65" transform="translate(150 0)"/>
     <use xlink:href="#SimHei-3a" transform="translate(200 0)"/>
     <use xlink:href="#SimHei-20" transform="translate(250 0)"/>
     <use xlink:href="#SimHei-53" transform="translate(300 0)"/>
     <use xlink:href="#SimHei-74" transform="translate(350 0)"/>
     <use xlink:href="#SimHei-72" transform="translate(400 0)"/>
     <use xlink:href="#SimHei-69" transform="translate(450 0)"/>
     <use xlink:href="#SimHei-6e" transform="translate(500 0)"/>
     <use xlink:href="#SimHei-67" transform="translate(550 0)"/>
    </g>
   </g>
   <g id="text_27">
    <!-- type: ReaderType -->
    <g style="fill: #333333" transform="translate(484.29 360.661725) scale(0.065 -0.065)">
     <defs>
      <path id="SimHei-54" d="M 2850 3925 
L 1850 3925 
L 1850 125 
L 1275 125 
L 1275 3925 
L 275 3925 
L 275 4400 
L 2850 4400 
L 2850 3925 
z
" transform="scale(0.015625)"/>
     </defs>
     <use xlink:href="#SimHei-74"/>
     <use xlink:href="#SimHei-79" transform="translate(50 0)"/>
     <use xlink:href="#SimHei-70" transform="translate(100 0)"/>
     <use xlink:href="#SimHei-65" transform="translate(150 0)"/>
     <use xlink:href="#SimHei-3a" transform="translate(200 0)"/>
     <use xlink:href="#SimHei-20" transform="translate(250 0)"/>
     <use xlink:href="#SimHei-52" transform="translate(300 0)"/>
     <use xlink:href="#SimHei-65" transform="translate(350 0)"/>
     <use xlink:href="#SimHei-61" transform="translate(400 0)"/>
     <use xlink:href="#SimHei-64" transform="translate(450 0)"/>
     <use xlink:href="#SimHei-65" transform="translate(500 0)"/>
     <use xlink:href="#SimHei-72" transform="translate(550 0)"/>
     <use xlink:href="#SimHei-54" transform="translate(600 0)"/>
     <use xlink:href="#SimHei-79" transform="translate(650 0)"/>
     <use xlink:href="#SimHei-70" transform="translate(700 0)"/>
     <use xlink:href="#SimHei-65" transform="translate(750 0)"/>
    </g>
   </g>
   <g id="text_28">
    <!-- department: String -->
    <g style="fill: #333333" transform="translate(484.29 381.754316) scale(0.065 -0.065)">
     <use xlink:href="#SimHei-64"/>
     <use xlink:href="#SimHei-65" transform="translate(50 0)"/>
     <use xlink:href="#SimHei-70" transform="translate(100 0)"/>
     <use xlink:href="#SimHei-61" transform="translate(150 0)"/>
     <use xlink:href="#SimHei-72" transform="translate(200 0)"/>
     <use xlink:href="#SimHei-74" transform="translate(250 0)"/>
     <use xlink:href="#SimHei-6d" transform="translate(300 0)"/>
     <use xlink:href="#SimHei-65" transform="translate(350 0)"/>
     <use xlink:href="#SimHei-6e" transform="translate(400 0)"/>
     <use xlink:href="#SimHei-74" transform="translate(450 0)"/>
     <use xlink:href="#SimHei-3a" transform="translate(500 0)"/>
     <use xlink:href="#SimHei-20" transform="translate(550 0)"/>
     <use xlink:href="#SimHei-53" transform="translate(600 0)"/>
     <use xlink:href="#SimHei-74" transform="translate(650 0)"/>
     <use xlink:href="#SimHei-72" transform="translate(700 0)"/>
     <use xlink:href="#SimHei-69" transform="translate(750 0)"/>
     <use xlink:href="#SimHei-6e" transform="translate(800 0)"/>
     <use xlink:href="#SimHei-67" transform="translate(850 0)"/>
    </g>
   </g>
   <g id="text_29">
    <!-- phone: String -->
    <g style="fill: #333333" transform="translate(484.29 402.821516) scale(0.065 -0.065)">
     <use xlink:href="#SimHei-70"/>
     <use xlink:href="#SimHei-68" transform="translate(50 0)"/>
     <use xlink:href="#SimHei-6f" transform="translate(100 0)"/>
     <use xlink:href="#SimHei-6e" transform="translate(150 0)"/>
     <use xlink:href="#SimHei-65" transform="translate(200 0)"/>
     <use xlink:href="#SimHei-3a" transform="translate(250 0)"/>
     <use xlink:href="#SimHei-20" transform="translate(300 0)"/>
     <use xlink:href="#SimHei-53" transform="translate(350 0)"/>
     <use xlink:href="#SimHei-74" transform="translate(400 0)"/>
     <use xlink:href="#SimHei-72" transform="translate(450 0)"/>
     <use xlink:href="#SimHei-69" transform="translate(500 0)"/>
     <use xlink:href="#SimHei-6e" transform="translate(550 0)"/>
     <use xlink:href="#SimHei-67" transform="translate(600 0)"/>
    </g>
   </g>
   <g id="text_30">
    <!-- currentBorrowCount: Integer -->
    <g style="fill: #333333" transform="translate(484.29 423.888716) scale(0.065 -0.065)">
     <use xlink:href="#SimHei-63"/>
     <use xlink:href="#SimHei-75" transform="translate(50 0)"/>
     <use xlink:href="#SimHei-72" transform="translate(100 0)"/>
     <use xlink:href="#SimHei-72" transform="translate(150 0)"/>
     <use xlink:href="#SimHei-65" transform="translate(200 0)"/>
     <use xlink:href="#SimHei-6e" transform="translate(250 0)"/>
     <use xlink:href="#SimHei-74" transform="translate(300 0)"/>
     <use xlink:href="#SimHei-42" transform="translate(350 0)"/>
     <use xlink:href="#SimHei-6f" transform="translate(400 0)"/>
     <use xlink:href="#SimHei-72" transform="translate(450 0)"/>
     <use xlink:href="#SimHei-72" transform="translate(500 0)"/>
     <use xlink:href="#SimHei-6f" transform="translate(550 0)"/>
     <use xlink:href="#SimHei-77" transform="translate(600 0)"/>
     <use xlink:href="#SimHei-43" transform="translate(650 0)"/>
     <use xlink:href="#SimHei-6f" transform="translate(700 0)"/>
     <use xlink:href="#SimHei-75" transform="translate(750 0)"/>
     <use xlink:href="#SimHei-6e" transform="translate(800 0)"/>
     <use xlink:href="#SimHei-74" transform="translate(850 0)"/>
     <use xlink:href="#SimHei-3a" transform="translate(900 0)"/>
     <use xlink:href="#SimHei-20" transform="translate(950 0)"/>
     <use xlink:href="#SimHei-49" transform="translate(1000 0)"/>
     <use xlink:href="#SimHei-6e" transform="translate(1050 0)"/>
     <use xlink:href="#SimHei-74" transform="translate(1100 0)"/>
     <use xlink:href="#SimHei-65" transform="translate(1150 0)"/>
     <use xlink:href="#SimHei-67" transform="translate(1200 0)"/>
     <use xlink:href="#SimHei-65" transform="translate(1250 0)"/>
     <use xlink:href="#SimHei-72" transform="translate(1300 0)"/>
    </g>
   </g>
   <g id="text_31">
    <!-- BorrowRecord -->
    <g style="fill: #ffffff" transform="translate(538.2 463.92885) scale(0.09 -0.09)">
     <use xlink:href="#SimHei-42"/>
     <use xlink:href="#SimHei-6f" transform="translate(50 0)"/>
     <use xlink:href="#SimHei-72" transform="translate(100 0)"/>
     <use xlink:href="#SimHei-72" transform="translate(150 0)"/>
     <use xlink:href="#SimHei-6f" transform="translate(200 0)"/>
     <use xlink:href="#SimHei-77" transform="translate(250 0)"/>
     <use xlink:href="#SimHei-52" transform="translate(300 0)"/>
     <use xlink:href="#SimHei-65" transform="translate(350 0)"/>
     <use xlink:href="#SimHei-63" transform="translate(400 0)"/>
     <use xlink:href="#SimHei-6f" transform="translate(450 0)"/>
     <use xlink:href="#SimHei-72" transform="translate(500 0)"/>
     <use xlink:href="#SimHei-64" transform="translate(550 0)"/>
    </g>
   </g>
   <g id="text_32">
    <!-- id: Long (PK) -->
    <g style="fill: #333333" transform="translate(484.29 487.924013) scale(0.065 -0.065)">
     <use xlink:href="#SimHei-69"/>
     <use xlink:href="#SimHei-64" transform="translate(50 0)"/>
     <use xlink:href="#SimHei-3a" transform="translate(100 0)"/>
     <use xlink:href="#SimHei-20" transform="translate(150 0)"/>
     <use xlink:href="#SimHei-4c" transform="translate(200 0)"/>
     <use xlink:href="#SimHei-6f" transform="translate(250 0)"/>
     <use xlink:href="#SimHei-6e" transform="translate(300 0)"/>
     <use xlink:href="#SimHei-67" transform="translate(350 0)"/>
     <use xlink:href="#SimHei-20" transform="translate(400 0)"/>
     <use xlink:href="#SimHei-28" transform="translate(450 0)"/>
     <use xlink:href="#SimHei-50" transform="translate(500 0)"/>
     <use xlink:href="#SimHei-4b" transform="translate(550 0)"/>
     <use xlink:href="#SimHei-29" transform="translate(600 0)"/>
    </g>
   </g>
   <g id="text_33">
    <!-- book_id: Long (FK) -->
    <g style="fill: #333333" transform="translate(484.29 508.965822) scale(0.065 -0.065)">
     <use xlink:href="#SimHei-62"/>
     <use xlink:href="#SimHei-6f" transform="translate(50 0)"/>
     <use xlink:href="#SimHei-6f" transform="translate(100 0)"/>
     <use xlink:href="#SimHei-6b" transform="translate(150 0)"/>
     <use xlink:href="#SimHei-5f" transform="translate(200 0)"/>
     <use xlink:href="#SimHei-69" transform="translate(250 0)"/>
     <use xlink:href="#SimHei-64" transform="translate(300 0)"/>
     <use xlink:href="#SimHei-3a" transform="translate(350 0)"/>
     <use xlink:href="#SimHei-20" transform="translate(400 0)"/>
     <use xlink:href="#SimHei-4c" transform="translate(450 0)"/>
     <use xlink:href="#SimHei-6f" transform="translate(500 0)"/>
     <use xlink:href="#SimHei-6e" transform="translate(550 0)"/>
     <use xlink:href="#SimHei-67" transform="translate(600 0)"/>
     <use xlink:href="#SimHei-20" transform="translate(650 0)"/>
     <use xlink:href="#SimHei-28" transform="translate(700 0)"/>
     <use xlink:href="#SimHei-46" transform="translate(750 0)"/>
     <use xlink:href="#SimHei-4b" transform="translate(800 0)"/>
     <use xlink:href="#SimHei-29" transform="translate(850 0)"/>
    </g>
   </g>
   <g id="text_34">
    <!-- reader_id: Long (FK) -->
    <g style="fill: #333333" transform="translate(484.29 530.033022) scale(0.065 -0.065)">
     <use xlink:href="#SimHei-72"/>
     <use xlink:href="#SimHei-65" transform="translate(50 0)"/>
     <use xlink:href="#SimHei-61" transform="translate(100 0)"/>
     <use xlink:href="#SimHei-64" transform="translate(150 0)"/>
     <use xlink:href="#SimHei-65" transform="translate(200 0)"/>
     <use xlink:href="#SimHei-72" transform="translate(250 0)"/>
     <use xlink:href="#SimHei-5f" transform="translate(300 0)"/>
     <use xlink:href="#SimHei-69" transform="translate(350 0)"/>
     <use xlink:href="#SimHei-64" transform="translate(400 0)"/>
     <use xlink:href="#SimHei-3a" transform="translate(450 0)"/>
     <use xlink:href="#SimHei-20" transform="translate(500 0)"/>
     <use xlink:href="#SimHei-4c" transform="translate(550 0)"/>
     <use xlink:href="#SimHei-6f" transform="translate(600 0)"/>
     <use xlink:href="#SimHei-6e" transform="translate(650 0)"/>
     <use xlink:href="#SimHei-67" transform="translate(700 0)"/>
     <use xlink:href="#SimHei-20" transform="translate(750 0)"/>
     <use xlink:href="#SimHei-28" transform="translate(800 0)"/>
     <use xlink:href="#SimHei-46" transform="translate(850 0)"/>
     <use xlink:href="#SimHei-4b" transform="translate(900 0)"/>
     <use xlink:href="#SimHei-29" transform="translate(950 0)"/>
    </g>
   </g>
   <g id="text_35">
    <!-- borrowDate: LocalDate -->
    <g style="fill: #333333" transform="translate(484.29 550.820925) scale(0.065 -0.065)">
     <defs>
      <path id="SimHei-44" d="M 2925 2250 
Q 2925 1100 2437 612 
Q 1950 125 1125 125 
L 275 125 
L 275 4400 
L 1125 4400 
Q 2050 4400 2487 3900 
Q 2925 3400 2925 2250 
z
M 2325 2250 
Q 2325 3175 2025 3550 
Q 1725 3925 1125 3925 
L 850 3925 
L 850 600 
L 1125 600 
Q 1725 600 2025 962 
Q 2325 1325 2325 2250 
z
" transform="scale(0.015625)"/>
     </defs>
     <use xlink:href="#SimHei-62"/>
     <use xlink:href="#SimHei-6f" transform="translate(50 0)"/>
     <use xlink:href="#SimHei-72" transform="translate(100 0)"/>
     <use xlink:href="#SimHei-72" transform="translate(150 0)"/>
     <use xlink:href="#SimHei-6f" transform="translate(200 0)"/>
     <use xlink:href="#SimHei-77" transform="translate(250 0)"/>
     <use xlink:href="#SimHei-44" transform="translate(300 0)"/>
     <use xlink:href="#SimHei-61" transform="translate(350 0)"/>
     <use xlink:href="#SimHei-74" transform="translate(400 0)"/>
     <use xlink:href="#SimHei-65" transform="translate(450 0)"/>
     <use xlink:href="#SimHei-3a" transform="translate(500 0)"/>
     <use xlink:href="#SimHei-20" transform="translate(550 0)"/>
     <use xlink:href="#SimHei-4c" transform="translate(600 0)"/>
     <use xlink:href="#SimHei-6f" transform="translate(650 0)"/>
     <use xlink:href="#SimHei-63" transform="translate(700 0)"/>
     <use xlink:href="#SimHei-61" transform="translate(750 0)"/>
     <use xlink:href="#SimHei-6c" transform="translate(800 0)"/>
     <use xlink:href="#SimHei-44" transform="translate(850 0)"/>
     <use xlink:href="#SimHei-61" transform="translate(900 0)"/>
     <use xlink:href="#SimHei-74" transform="translate(950 0)"/>
     <use xlink:href="#SimHei-65" transform="translate(1000 0)"/>
    </g>
   </g>
   <g id="text_36">
    <!-- dueDate: LocalDate -->
    <g style="fill: #333333" transform="translate(484.29 571.888125) scale(0.065 -0.065)">
     <use xlink:href="#SimHei-64"/>
     <use xlink:href="#SimHei-75" transform="translate(50 0)"/>
     <use xlink:href="#SimHei-65" transform="translate(100 0)"/>
     <use xlink:href="#SimHei-44" transform="translate(150 0)"/>
     <use xlink:href="#SimHei-61" transform="translate(200 0)"/>
     <use xlink:href="#SimHei-74" transform="translate(250 0)"/>
     <use xlink:href="#SimHei-65" transform="translate(300 0)"/>
     <use xlink:href="#SimHei-3a" transform="translate(350 0)"/>
     <use xlink:href="#SimHei-20" transform="translate(400 0)"/>
     <use xlink:href="#SimHei-4c" transform="translate(450 0)"/>
     <use xlink:href="#SimHei-6f" transform="translate(500 0)"/>
     <use xlink:href="#SimHei-63" transform="translate(550 0)"/>
     <use xlink:href="#SimHei-61" transform="translate(600 0)"/>
     <use xlink:href="#SimHei-6c" transform="translate(650 0)"/>
     <use xlink:href="#SimHei-44" transform="translate(700 0)"/>
     <use xlink:href="#SimHei-61" transform="translate(750 0)"/>
     <use xlink:href="#SimHei-74" transform="translate(800 0)"/>
     <use xlink:href="#SimHei-65" transform="translate(850 0)"/>
    </g>
   </g>
   <g id="text_37">
    <!-- returnDate: LocalDate -->
    <g style="fill: #333333" transform="translate(484.29 592.955325) scale(0.065 -0.065)">
     <use xlink:href="#SimHei-72"/>
     <use xlink:href="#SimHei-65" transform="translate(50 0)"/>
     <use xlink:href="#SimHei-74" transform="translate(100 0)"/>
     <use xlink:href="#SimHei-75" transform="translate(150 0)"/>
     <use xlink:href="#SimHei-72" transform="translate(200 0)"/>
     <use xlink:href="#SimHei-6e" transform="translate(250 0)"/>
     <use xlink:href="#SimHei-44" transform="translate(300 0)"/>
     <use xlink:href="#SimHei-61" transform="translate(350 0)"/>
     <use xlink:href="#SimHei-74" transform="translate(400 0)"/>
     <use xlink:href="#SimHei-65" transform="translate(450 0)"/>
     <use xlink:href="#SimHei-3a" transform="translate(500 0)"/>
     <use xlink:href="#SimHei-20" transform="translate(550 0)"/>
     <use xlink:href="#SimHei-4c" transform="translate(600 0)"/>
     <use xlink:href="#SimHei-6f" transform="translate(650 0)"/>
     <use xlink:href="#SimHei-63" transform="translate(700 0)"/>
     <use xlink:href="#SimHei-61" transform="translate(750 0)"/>
     <use xlink:href="#SimHei-6c" transform="translate(800 0)"/>
     <use xlink:href="#SimHei-44" transform="translate(850 0)"/>
     <use xlink:href="#SimHei-61" transform="translate(900 0)"/>
     <use xlink:href="#SimHei-74" transform="translate(950 0)"/>
     <use xlink:href="#SimHei-65" transform="translate(1000 0)"/>
    </g>
   </g>
   <g id="text_38">
    <!-- status: BorrowStatus -->
    <g style="fill: #333333" transform="translate(484.29 614.022525) scale(0.065 -0.065)">
     <use xlink:href="#SimHei-73"/>
     <use xlink:href="#SimHei-74" transform="translate(50 0)"/>
     <use xlink:href="#SimHei-61" transform="translate(100 0)"/>
     <use xlink:href="#SimHei-74" transform="translate(150 0)"/>
     <use xlink:href="#SimHei-75" transform="translate(200 0)"/>
     <use xlink:href="#SimHei-73" transform="translate(250 0)"/>
     <use xlink:href="#SimHei-3a" transform="translate(300 0)"/>
     <use xlink:href="#SimHei-20" transform="translate(350 0)"/>
     <use xlink:href="#SimHei-42" transform="translate(400 0)"/>
     <use xlink:href="#SimHei-6f" transform="translate(450 0)"/>
     <use xlink:href="#SimHei-72" transform="translate(500 0)"/>
     <use xlink:href="#SimHei-72" transform="translate(550 0)"/>
     <use xlink:href="#SimHei-6f" transform="translate(600 0)"/>
     <use xlink:href="#SimHei-77" transform="translate(650 0)"/>
     <use xlink:href="#SimHei-53" transform="translate(700 0)"/>
     <use xlink:href="#SimHei-74" transform="translate(750 0)"/>
     <use xlink:href="#SimHei-61" transform="translate(800 0)"/>
     <use xlink:href="#SimHei-74" transform="translate(850 0)"/>
     <use xlink:href="#SimHei-75" transform="translate(900 0)"/>
     <use xlink:href="#SimHei-73" transform="translate(950 0)"/>
    </g>
   </g>
   <g id="text_39">
    <!-- renewCount: Integer -->
    <g style="fill: #333333" transform="translate(484.29 635.115116) scale(0.065 -0.065)">
     <use xlink:href="#SimHei-72"/>
     <use xlink:href="#SimHei-65" transform="translate(50 0)"/>
     <use xlink:href="#SimHei-6e" transform="translate(100 0)"/>
     <use xlink:href="#SimHei-65" transform="translate(150 0)"/>
     <use xlink:href="#SimHei-77" transform="translate(200 0)"/>
     <use xlink:href="#SimHei-43" transform="translate(250 0)"/>
     <use xlink:href="#SimHei-6f" transform="translate(300 0)"/>
     <use xlink:href="#SimHei-75" transform="translate(350 0)"/>
     <use xlink:href="#SimHei-6e" transform="translate(400 0)"/>
     <use xlink:href="#SimHei-74" transform="translate(450 0)"/>
     <use xlink:href="#SimHei-3a" transform="translate(500 0)"/>
     <use xlink:href="#SimHei-20" transform="translate(550 0)"/>
     <use xlink:href="#SimHei-49" transform="translate(600 0)"/>
     <use xlink:href="#SimHei-6e" transform="translate(650 0)"/>
     <use xlink:href="#SimHei-74" transform="translate(700 0)"/>
     <use xlink:href="#SimHei-65" transform="translate(750 0)"/>
     <use xlink:href="#SimHei-67" transform="translate(800 0)"/>
     <use xlink:href="#SimHei-65" transform="translate(850 0)"/>
     <use xlink:href="#SimHei-72" transform="translate(900 0)"/>
    </g>
   </g>
   <g id="text_40">
    <!-- fine: BigDecimal -->
    <g style="fill: #333333" transform="translate(484.29 656.182316) scale(0.065 -0.065)">
     <defs>
      <path id="SimHei-66" d="M 2850 3825 
Q 2725 3900 2550 3950 
Q 2375 4000 2100 4000 
Q 1825 4000 1725 3862 
Q 1625 3725 1625 3525 
L 1625 2925 
L 2650 2925 
L 2650 2525 
L 1625 2525 
L 1625 125 
L 1125 125 
L 1125 2525 
L 275 2525 
L 275 2925 
L 1125 2925 
L 1125 3500 
Q 1125 3950 1400 4200 
Q 1675 4450 2125 4450 
Q 2400 4450 2562 4412 
Q 2725 4375 2850 4325 
L 2850 3825 
z
" transform="scale(0.015625)"/>
     </defs>
     <use xlink:href="#SimHei-66"/>
     <use xlink:href="#SimHei-69" transform="translate(50 0)"/>
     <use xlink:href="#SimHei-6e" transform="translate(100 0)"/>
     <use xlink:href="#SimHei-65" transform="translate(150 0)"/>
     <use xlink:href="#SimHei-3a" transform="translate(200 0)"/>
     <use xlink:href="#SimHei-20" transform="translate(250 0)"/>
     <use xlink:href="#SimHei-42" transform="translate(300 0)"/>
     <use xlink:href="#SimHei-69" transform="translate(350 0)"/>
     <use xlink:href="#SimHei-67" transform="translate(400 0)"/>
     <use xlink:href="#SimHei-44" transform="translate(450 0)"/>
     <use xlink:href="#SimHei-65" transform="translate(500 0)"/>
     <use xlink:href="#SimHei-63" transform="translate(550 0)"/>
     <use xlink:href="#SimHei-69" transform="translate(600 0)"/>
     <use xlink:href="#SimHei-6d" transform="translate(650 0)"/>
     <use xlink:href="#SimHei-61" transform="translate(700 0)"/>
     <use xlink:href="#SimHei-6c" transform="translate(750 0)"/>
    </g>
   </g>
   <g id="text_41">
    <!-- CartItem -->
    <g style="fill: #ffffff" transform="translate(854.1 516.59685) scale(0.09 -0.09)">
     <use xlink:href="#SimHei-43"/>
     <use xlink:href="#SimHei-61" transform="translate(50 0)"/>
     <use xlink:href="#SimHei-72" transform="translate(100 0)"/>
     <use xlink:href="#SimHei-74" transform="translate(150 0)"/>
     <use xlink:href="#SimHei-49" transform="translate(200 0)"/>
     <use xlink:href="#SimHei-74" transform="translate(250 0)"/>
     <use xlink:href="#SimHei-65" transform="translate(300 0)"/>
     <use xlink:href="#SimHei-6d" transform="translate(350 0)"/>
    </g>
   </g>
   <g id="text_42">
    <!-- id: Long (PK) -->
    <g style="fill: #333333" transform="translate(791.19 540.592013) scale(0.065 -0.065)">
     <use xlink:href="#SimHei-69"/>
     <use xlink:href="#SimHei-64" transform="translate(50 0)"/>
     <use xlink:href="#SimHei-3a" transform="translate(100 0)"/>
     <use xlink:href="#SimHei-20" transform="translate(150 0)"/>
     <use xlink:href="#SimHei-4c" transform="translate(200 0)"/>
     <use xlink:href="#SimHei-6f" transform="translate(250 0)"/>
     <use xlink:href="#SimHei-6e" transform="translate(300 0)"/>
     <use xlink:href="#SimHei-67" transform="translate(350 0)"/>
     <use xlink:href="#SimHei-20" transform="translate(400 0)"/>
     <use xlink:href="#SimHei-28" transform="translate(450 0)"/>
     <use xlink:href="#SimHei-50" transform="translate(500 0)"/>
     <use xlink:href="#SimHei-4b" transform="translate(550 0)"/>
     <use xlink:href="#SimHei-29" transform="translate(600 0)"/>
    </g>
   </g>
   <g id="text_43">
    <!-- reader_id: Long (FK) -->
    <g style="fill: #333333" transform="translate(791.19 561.633822) scale(0.065 -0.065)">
     <use xlink:href="#SimHei-72"/>
     <use xlink:href="#SimHei-65" transform="translate(50 0)"/>
     <use xlink:href="#SimHei-61" transform="translate(100 0)"/>
     <use xlink:href="#SimHei-64" transform="translate(150 0)"/>
     <use xlink:href="#SimHei-65" transform="translate(200 0)"/>
     <use xlink:href="#SimHei-72" transform="translate(250 0)"/>
     <use xlink:href="#SimHei-5f" transform="translate(300 0)"/>
     <use xlink:href="#SimHei-69" transform="translate(350 0)"/>
     <use xlink:href="#SimHei-64" transform="translate(400 0)"/>
     <use xlink:href="#SimHei-3a" transform="translate(450 0)"/>
     <use xlink:href="#SimHei-20" transform="translate(500 0)"/>
     <use xlink:href="#SimHei-4c" transform="translate(550 0)"/>
     <use xlink:href="#SimHei-6f" transform="translate(600 0)"/>
     <use xlink:href="#SimHei-6e" transform="translate(650 0)"/>
     <use xlink:href="#SimHei-67" transform="translate(700 0)"/>
     <use xlink:href="#SimHei-20" transform="translate(750 0)"/>
     <use xlink:href="#SimHei-28" transform="translate(800 0)"/>
     <use xlink:href="#SimHei-46" transform="translate(850 0)"/>
     <use xlink:href="#SimHei-4b" transform="translate(900 0)"/>
     <use xlink:href="#SimHei-29" transform="translate(950 0)"/>
    </g>
   </g>
   <g id="text_44">
    <!-- book_id: Long (FK) -->
    <g style="fill: #333333" transform="translate(791.19 582.701022) scale(0.065 -0.065)">
     <use xlink:href="#SimHei-62"/>
     <use xlink:href="#SimHei-6f" transform="translate(50 0)"/>
     <use xlink:href="#SimHei-6f" transform="translate(100 0)"/>
     <use xlink:href="#SimHei-6b" transform="translate(150 0)"/>
     <use xlink:href="#SimHei-5f" transform="translate(200 0)"/>
     <use xlink:href="#SimHei-69" transform="translate(250 0)"/>
     <use xlink:href="#SimHei-64" transform="translate(300 0)"/>
     <use xlink:href="#SimHei-3a" transform="translate(350 0)"/>
     <use xlink:href="#SimHei-20" transform="translate(400 0)"/>
     <use xlink:href="#SimHei-4c" transform="translate(450 0)"/>
     <use xlink:href="#SimHei-6f" transform="translate(500 0)"/>
     <use xlink:href="#SimHei-6e" transform="translate(550 0)"/>
     <use xlink:href="#SimHei-67" transform="translate(600 0)"/>
     <use xlink:href="#SimHei-20" transform="translate(650 0)"/>
     <use xlink:href="#SimHei-28" transform="translate(700 0)"/>
     <use xlink:href="#SimHei-46" transform="translate(750 0)"/>
     <use xlink:href="#SimHei-4b" transform="translate(800 0)"/>
     <use xlink:href="#SimHei-29" transform="translate(850 0)"/>
    </g>
   </g>
   <g id="text_45">
    <!-- createTime: LocalDateTime -->
    <g style="fill: #333333" transform="translate(791.19 603.488925) scale(0.065 -0.065)">
     <use xlink:href="#SimHei-63"/>
     <use xlink:href="#SimHei-72" transform="translate(50 0)"/>
     <use xlink:href="#SimHei-65" transform="translate(100 0)"/>
     <use xlink:href="#SimHei-61" transform="translate(150 0)"/>
     <use xlink:href="#SimHei-74" transform="translate(200 0)"/>
     <use xlink:href="#SimHei-65" transform="translate(250 0)"/>
     <use xlink:href="#SimHei-54" transform="translate(300 0)"/>
     <use xlink:href="#SimHei-69" transform="translate(350 0)"/>
     <use xlink:href="#SimHei-6d" transform="translate(400 0)"/>
     <use xlink:href="#SimHei-65" transform="translate(450 0)"/>
     <use xlink:href="#SimHei-3a" transform="translate(500 0)"/>
     <use xlink:href="#SimHei-20" transform="translate(550 0)"/>
     <use xlink:href="#SimHei-4c" transform="translate(600 0)"/>
     <use xlink:href="#SimHei-6f" transform="translate(650 0)"/>
     <use xlink:href="#SimHei-63" transform="translate(700 0)"/>
     <use xlink:href="#SimHei-61" transform="translate(750 0)"/>
     <use xlink:href="#SimHei-6c" transform="translate(800 0)"/>
     <use xlink:href="#SimHei-44" transform="translate(850 0)"/>
     <use xlink:href="#SimHei-61" transform="translate(900 0)"/>
     <use xlink:href="#SimHei-74" transform="translate(950 0)"/>
     <use xlink:href="#SimHei-65" transform="translate(1000 0)"/>
     <use xlink:href="#SimHei-54" transform="translate(1050 0)"/>
     <use xlink:href="#SimHei-69" transform="translate(1100 0)"/>
     <use xlink:href="#SimHei-6d" transform="translate(1150 0)"/>
     <use xlink:href="#SimHei-65" transform="translate(1200 0)"/>
    </g>
   </g>
   <g id="text_46">
    <!-- AdminUser -->
    <g style="fill: #ffffff" transform="translate(851.85 211.67685) scale(0.09 -0.09)">
     <defs>
      <path id="SimHei-41" d="M 3075 125 
L 2475 125 
L 2125 1450 
L 1025 1450 
L 675 125 
L 75 125 
L 1325 4450 
L 1825 4450 
L 3075 125 
z
M 2000 1925 
L 1600 3450 
L 1550 3450 
L 1150 1925 
L 2000 1925 
z
" transform="scale(0.015625)"/>
      <path id="SimHei-55" d="M 2875 1375 
Q 2875 775 2562 425 
Q 2250 75 1575 75 
Q 900 75 587 425 
Q 275 775 275 1375 
L 275 4400 
L 850 4400 
L 850 1375 
Q 850 950 1050 750 
Q 1250 550 1575 550 
Q 1900 550 2100 750 
Q 2300 950 2300 1375 
L 2300 4400 
L 2875 4400 
L 2875 1375 
z
" transform="scale(0.015625)"/>
     </defs>
     <use xlink:href="#SimHei-41"/>
     <use xlink:href="#SimHei-64" transform="translate(50 0)"/>
     <use xlink:href="#SimHei-6d" transform="translate(100 0)"/>
     <use xlink:href="#SimHei-69" transform="translate(150 0)"/>
     <use xlink:href="#SimHei-6e" transform="translate(200 0)"/>
     <use xlink:href="#SimHei-55" transform="translate(250 0)"/>
     <use xlink:href="#SimHei-73" transform="translate(300 0)"/>
     <use xlink:href="#SimHei-65" transform="translate(350 0)"/>
     <use xlink:href="#SimHei-72" transform="translate(400 0)"/>
    </g>
   </g>
   <g id="text_47">
    <!-- id: Long (PK) -->
    <g style="fill: #333333" transform="translate(791.19 235.672012) scale(0.065 -0.065)">
     <use xlink:href="#SimHei-69"/>
     <use xlink:href="#SimHei-64" transform="translate(50 0)"/>
     <use xlink:href="#SimHei-3a" transform="translate(100 0)"/>
     <use xlink:href="#SimHei-20" transform="translate(150 0)"/>
     <use xlink:href="#SimHei-4c" transform="translate(200 0)"/>
     <use xlink:href="#SimHei-6f" transform="translate(250 0)"/>
     <use xlink:href="#SimHei-6e" transform="translate(300 0)"/>
     <use xlink:href="#SimHei-67" transform="translate(350 0)"/>
     <use xlink:href="#SimHei-20" transform="translate(400 0)"/>
     <use xlink:href="#SimHei-28" transform="translate(450 0)"/>
     <use xlink:href="#SimHei-50" transform="translate(500 0)"/>
     <use xlink:href="#SimHei-4b" transform="translate(550 0)"/>
     <use xlink:href="#SimHei-29" transform="translate(600 0)"/>
    </g>
   </g>
   <g id="text_48">
    <!-- username: String -->
    <g style="fill: #333333" transform="translate(791.19 256.459916) scale(0.065 -0.065)">
     <use xlink:href="#SimHei-75"/>
     <use xlink:href="#SimHei-73" transform="translate(50 0)"/>
     <use xlink:href="#SimHei-65" transform="translate(100 0)"/>
     <use xlink:href="#SimHei-72" transform="translate(150 0)"/>
     <use xlink:href="#SimHei-6e" transform="translate(200 0)"/>
     <use xlink:href="#SimHei-61" transform="translate(250 0)"/>
     <use xlink:href="#SimHei-6d" transform="translate(300 0)"/>
     <use xlink:href="#SimHei-65" transform="translate(350 0)"/>
     <use xlink:href="#SimHei-3a" transform="translate(400 0)"/>
     <use xlink:href="#SimHei-20" transform="translate(450 0)"/>
     <use xlink:href="#SimHei-53" transform="translate(500 0)"/>
     <use xlink:href="#SimHei-74" transform="translate(550 0)"/>
     <use xlink:href="#SimHei-72" transform="translate(600 0)"/>
     <use xlink:href="#SimHei-69" transform="translate(650 0)"/>
     <use xlink:href="#SimHei-6e" transform="translate(700 0)"/>
     <use xlink:href="#SimHei-67" transform="translate(750 0)"/>
    </g>
   </g>
   <g id="text_49">
    <!-- password: String -->
    <g style="fill: #333333" transform="translate(791.19 277.527116) scale(0.065 -0.065)">
     <use xlink:href="#SimHei-70"/>
     <use xlink:href="#SimHei-61" transform="translate(50 0)"/>
     <use xlink:href="#SimHei-73" transform="translate(100 0)"/>
     <use xlink:href="#SimHei-73" transform="translate(150 0)"/>
     <use xlink:href="#SimHei-77" transform="translate(200 0)"/>
     <use xlink:href="#SimHei-6f" transform="translate(250 0)"/>
     <use xlink:href="#SimHei-72" transform="translate(300 0)"/>
     <use xlink:href="#SimHei-64" transform="translate(350 0)"/>
     <use xlink:href="#SimHei-3a" transform="translate(400 0)"/>
     <use xlink:href="#SimHei-20" transform="translate(450 0)"/>
     <use xlink:href="#SimHei-53" transform="translate(500 0)"/>
     <use xlink:href="#SimHei-74" transform="translate(550 0)"/>
     <use xlink:href="#SimHei-72" transform="translate(600 0)"/>
     <use xlink:href="#SimHei-69" transform="translate(650 0)"/>
     <use xlink:href="#SimHei-6e" transform="translate(700 0)"/>
     <use xlink:href="#SimHei-67" transform="translate(750 0)"/>
    </g>
   </g>
   <g id="text_50">
    <!-- realName: String -->
    <g style="fill: #333333" transform="translate(791.19 298.594316) scale(0.065 -0.065)">
     <use xlink:href="#SimHei-72"/>
     <use xlink:href="#SimHei-65" transform="translate(50 0)"/>
     <use xlink:href="#SimHei-61" transform="translate(100 0)"/>
     <use xlink:href="#SimHei-6c" transform="translate(150 0)"/>
     <use xlink:href="#SimHei-4e" transform="translate(200 0)"/>
     <use xlink:href="#SimHei-61" transform="translate(250 0)"/>
     <use xlink:href="#SimHei-6d" transform="translate(300 0)"/>
     <use xlink:href="#SimHei-65" transform="translate(350 0)"/>
     <use xlink:href="#SimHei-3a" transform="translate(400 0)"/>
     <use xlink:href="#SimHei-20" transform="translate(450 0)"/>
     <use xlink:href="#SimHei-53" transform="translate(500 0)"/>
     <use xlink:href="#SimHei-74" transform="translate(550 0)"/>
     <use xlink:href="#SimHei-72" transform="translate(600 0)"/>
     <use xlink:href="#SimHei-69" transform="translate(650 0)"/>
     <use xlink:href="#SimHei-6e" transform="translate(700 0)"/>
     <use xlink:href="#SimHei-67" transform="translate(750 0)"/>
    </g>
   </g>
  </g>
  <g id="text_51">
   <!-- 图 4-3  E-R 图 -->
   <g transform="translate(437.2 19.2625) scale(0.16 -0.16)">
    <defs>
     <path id="SimHei-56fe" d="M 5800 4975 
Q 5775 4350 5775 3600 
L 5775 925 
Q 5775 150 5800 -600 
L 5300 -600 
L 5300 -275 
L 1125 -275 
L 1125 -650 
L 625 -650 
Q 650 125 650 950 
L 650 3600 
Q 650 4325 625 4975 
L 5800 4975 
z
M 5300 150 
L 5300 4575 
L 1125 4575 
L 1125 150 
L 5300 150 
z
M 3225 4250 
Q 3075 4100 2950 3925 
L 4625 3925 
Q 4525 3700 4300 3375 
Q 4075 3050 3600 2600 
Q 4350 2225 5075 2150 
Q 4900 1925 4775 1675 
Q 3850 1950 3225 2350 
Q 2500 1875 1675 1650 
Q 1600 1875 1400 2075 
Q 2200 2200 2875 2600 
Q 2525 2925 2375 3150 
Q 2150 2900 1900 2650 
Q 1725 2850 1525 2950 
Q 1950 3300 2250 3737 
Q 2550 4175 2675 4475 
Q 2925 4350 3225 4250 
z
M 2450 1275 
Q 3550 950 4100 725 
Q 3975 525 3850 300 
Q 2825 725 2275 850 
Q 2375 1050 2450 1275 
z
M 2925 2050 
Q 3775 1700 4075 1600 
Q 3950 1400 3850 1150 
Q 3000 1550 2700 1650 
Q 2825 1825 2925 2050 
z
M 2625 3450 
Q 3000 3025 3275 2850 
Q 3600 3100 3875 3525 
L 2675 3525 
L 2625 3450 
z
" transform="scale(0.015625)"/>
     <path id="SimHei-34" d="M 2000 1100 
L 75 1100 
L 75 1525 
L 2100 4450 
L 2475 4450 
L 2475 1525 
L 3075 1525 
L 3075 1100 
L 2475 1100 
L 2475 150 
L 2000 150 
L 2000 1100 
z
M 2000 1525 
L 2000 3500 
L 600 1525 
L 2000 1525 
z
" transform="scale(0.015625)"/>
     <path id="SimHei-2d" d="M 2975 2125 
L 125 2125 
L 125 2525 
L 2975 2525 
L 2975 2125 
z
" transform="scale(0.015625)"/>
     <path id="SimHei-33" d="M 250 1225 
L 700 1300 
Q 800 975 1025 762 
Q 1250 550 1587 562 
Q 1925 575 2125 837 
Q 2325 1100 2300 1437 
Q 2275 1775 2037 1962 
Q 1800 2150 1275 2225 
L 1275 2550 
Q 1800 2600 2037 2825 
Q 2275 3050 2250 3412 
Q 2225 3775 1925 3937 
Q 1625 4100 1287 3975 
Q 950 3850 750 3275 
L 300 3350 
Q 450 3800 712 4100 
Q 975 4400 1425 4450 
Q 1875 4500 2212 4337 
Q 2550 4175 2687 3837 
Q 2825 3500 2725 3100 
Q 2625 2700 2150 2400 
Q 2500 2250 2687 1950 
Q 2875 1650 2812 1162 
Q 2750 675 2375 375 
Q 2000 75 1525 87 
Q 1050 100 700 387 
Q 350 675 250 1225 
z
" transform="scale(0.015625)"/>
     <path id="SimHei-45" d="M 2900 125 
L 350 125 
L 350 4400 
L 2775 4400 
L 2775 3925 
L 925 3925 
L 925 2600 
L 2625 2600 
L 2625 2125 
L 925 2125 
L 925 600 
L 2900 600 
L 2900 125 
z
" transform="scale(0.015625)"/>
    </defs>
    <use xlink:href="#SimHei-56fe"/>
    <use xlink:href="#SimHei-20" transform="translate(100 0)"/>
    <use xlink:href="#SimHei-34" transform="translate(150 0)"/>
    <use xlink:href="#SimHei-2d" transform="translate(200 0)"/>
    <use xlink:href="#SimHei-33" transform="translate(250 0)"/>
    <use xlink:href="#SimHei-20" transform="translate(300 0)"/>
    <use xlink:href="#SimHei-20" transform="translate(350 0)"/>
    <use xlink:href="#SimHei-45" transform="translate(400 0)"/>
    <use xlink:href="#SimHei-2d" transform="translate(450 0)"/>
    <use xlink:href="#SimHei-52" transform="translate(500 0)"/>
    <use xlink:href="#SimHei-20" transform="translate(550 0)"/>
    <use xlink:href="#SimHei-56fe" transform="translate(600 0)"/>
   </g>
  </g>
 </g>
 <defs>
  <clipPath id="pfebeab99ec">
   <rect x="7.2" y="84.96" width="1004.4" height="665.28"/>
  </clipPath>
 </defs>
</svg>
